G04 #@! TF.GenerationSoftware,KiCad,Pcbnew,(5.1.5)-3*
G04 #@! TF.CreationDate,2020-01-24T11:16:49+01:00*
G04 #@! TF.ProjectId,Ladestandsanzeige,4c616465-7374-4616-9e64-73616e7a6569,rev?*
G04 #@! TF.SameCoordinates,Original*
G04 #@! TF.FileFunction,Legend,Top*
G04 #@! TF.FilePolarity,Positive*
%FSLAX46Y46*%
G04 Gerber Fmt 4.6, Leading zero omitted, Abs format (unit mm)*
G04 Created by KiCad (PCBNEW (5.1.5)-3) date 2020-01-24 11:16:49*
%MOMM*%
%LPD*%
G04 APERTURE LIST*
%ADD10C,0.150000*%
%ADD11C,0.010000*%
%ADD12C,0.120000*%
G04 APERTURE END LIST*
D10*
X135359238Y-125420380D02*
X134883047Y-125420380D01*
X134883047Y-124420380D01*
X136121142Y-125420380D02*
X136121142Y-124896571D01*
X136073523Y-124801333D01*
X135978285Y-124753714D01*
X135787809Y-124753714D01*
X135692571Y-124801333D01*
X136121142Y-125372761D02*
X136025904Y-125420380D01*
X135787809Y-125420380D01*
X135692571Y-125372761D01*
X135644952Y-125277523D01*
X135644952Y-125182285D01*
X135692571Y-125087047D01*
X135787809Y-125039428D01*
X136025904Y-125039428D01*
X136121142Y-124991809D01*
X137025904Y-125420380D02*
X137025904Y-124420380D01*
X137025904Y-125372761D02*
X136930666Y-125420380D01*
X136740190Y-125420380D01*
X136644952Y-125372761D01*
X136597333Y-125325142D01*
X136549714Y-125229904D01*
X136549714Y-124944190D01*
X136597333Y-124848952D01*
X136644952Y-124801333D01*
X136740190Y-124753714D01*
X136930666Y-124753714D01*
X137025904Y-124801333D01*
X137883047Y-125372761D02*
X137787809Y-125420380D01*
X137597333Y-125420380D01*
X137502095Y-125372761D01*
X137454476Y-125277523D01*
X137454476Y-124896571D01*
X137502095Y-124801333D01*
X137597333Y-124753714D01*
X137787809Y-124753714D01*
X137883047Y-124801333D01*
X137930666Y-124896571D01*
X137930666Y-124991809D01*
X137454476Y-125087047D01*
X138311619Y-125372761D02*
X138406857Y-125420380D01*
X138597333Y-125420380D01*
X138692571Y-125372761D01*
X138740190Y-125277523D01*
X138740190Y-125229904D01*
X138692571Y-125134666D01*
X138597333Y-125087047D01*
X138454476Y-125087047D01*
X138359238Y-125039428D01*
X138311619Y-124944190D01*
X138311619Y-124896571D01*
X138359238Y-124801333D01*
X138454476Y-124753714D01*
X138597333Y-124753714D01*
X138692571Y-124801333D01*
X139025904Y-124753714D02*
X139406857Y-124753714D01*
X139168761Y-124420380D02*
X139168761Y-125277523D01*
X139216380Y-125372761D01*
X139311619Y-125420380D01*
X139406857Y-125420380D01*
X140168761Y-125420380D02*
X140168761Y-124896571D01*
X140121142Y-124801333D01*
X140025904Y-124753714D01*
X139835428Y-124753714D01*
X139740190Y-124801333D01*
X140168761Y-125372761D02*
X140073523Y-125420380D01*
X139835428Y-125420380D01*
X139740190Y-125372761D01*
X139692571Y-125277523D01*
X139692571Y-125182285D01*
X139740190Y-125087047D01*
X139835428Y-125039428D01*
X140073523Y-125039428D01*
X140168761Y-124991809D01*
X140644952Y-124753714D02*
X140644952Y-125420380D01*
X140644952Y-124848952D02*
X140692571Y-124801333D01*
X140787809Y-124753714D01*
X140930666Y-124753714D01*
X141025904Y-124801333D01*
X141073523Y-124896571D01*
X141073523Y-125420380D01*
X141978285Y-125420380D02*
X141978285Y-124420380D01*
X141978285Y-125372761D02*
X141883047Y-125420380D01*
X141692571Y-125420380D01*
X141597333Y-125372761D01*
X141549714Y-125325142D01*
X141502095Y-125229904D01*
X141502095Y-124944190D01*
X141549714Y-124848952D01*
X141597333Y-124801333D01*
X141692571Y-124753714D01*
X141883047Y-124753714D01*
X141978285Y-124801333D01*
X142406857Y-125372761D02*
X142502095Y-125420380D01*
X142692571Y-125420380D01*
X142787809Y-125372761D01*
X142835428Y-125277523D01*
X142835428Y-125229904D01*
X142787809Y-125134666D01*
X142692571Y-125087047D01*
X142549714Y-125087047D01*
X142454476Y-125039428D01*
X142406857Y-124944190D01*
X142406857Y-124896571D01*
X142454476Y-124801333D01*
X142549714Y-124753714D01*
X142692571Y-124753714D01*
X142787809Y-124801333D01*
X143692571Y-125420380D02*
X143692571Y-124896571D01*
X143644952Y-124801333D01*
X143549714Y-124753714D01*
X143359238Y-124753714D01*
X143264000Y-124801333D01*
X143692571Y-125372761D02*
X143597333Y-125420380D01*
X143359238Y-125420380D01*
X143264000Y-125372761D01*
X143216380Y-125277523D01*
X143216380Y-125182285D01*
X143264000Y-125087047D01*
X143359238Y-125039428D01*
X143597333Y-125039428D01*
X143692571Y-124991809D01*
X144168761Y-124753714D02*
X144168761Y-125420380D01*
X144168761Y-124848952D02*
X144216380Y-124801333D01*
X144311619Y-124753714D01*
X144454476Y-124753714D01*
X144549714Y-124801333D01*
X144597333Y-124896571D01*
X144597333Y-125420380D01*
X144978285Y-124753714D02*
X145502095Y-124753714D01*
X144978285Y-125420380D01*
X145502095Y-125420380D01*
X146264000Y-125372761D02*
X146168761Y-125420380D01*
X145978285Y-125420380D01*
X145883047Y-125372761D01*
X145835428Y-125277523D01*
X145835428Y-124896571D01*
X145883047Y-124801333D01*
X145978285Y-124753714D01*
X146168761Y-124753714D01*
X146264000Y-124801333D01*
X146311619Y-124896571D01*
X146311619Y-124991809D01*
X145835428Y-125087047D01*
X146740190Y-125420380D02*
X146740190Y-124753714D01*
X146740190Y-124420380D02*
X146692571Y-124468000D01*
X146740190Y-124515619D01*
X146787809Y-124468000D01*
X146740190Y-124420380D01*
X146740190Y-124515619D01*
X147644952Y-124753714D02*
X147644952Y-125563238D01*
X147597333Y-125658476D01*
X147549714Y-125706095D01*
X147454476Y-125753714D01*
X147311619Y-125753714D01*
X147216380Y-125706095D01*
X147644952Y-125372761D02*
X147549714Y-125420380D01*
X147359238Y-125420380D01*
X147264000Y-125372761D01*
X147216380Y-125325142D01*
X147168761Y-125229904D01*
X147168761Y-124944190D01*
X147216380Y-124848952D01*
X147264000Y-124801333D01*
X147359238Y-124753714D01*
X147549714Y-124753714D01*
X147644952Y-124801333D01*
X148502095Y-125372761D02*
X148406857Y-125420380D01*
X148216380Y-125420380D01*
X148121142Y-125372761D01*
X148073523Y-125277523D01*
X148073523Y-124896571D01*
X148121142Y-124801333D01*
X148216380Y-124753714D01*
X148406857Y-124753714D01*
X148502095Y-124801333D01*
X148549714Y-124896571D01*
X148549714Y-124991809D01*
X148073523Y-125087047D01*
X150311619Y-125420380D02*
X149978285Y-124944190D01*
X149740190Y-125420380D02*
X149740190Y-124420380D01*
X150121142Y-124420380D01*
X150216380Y-124468000D01*
X150264000Y-124515619D01*
X150311619Y-124610857D01*
X150311619Y-124753714D01*
X150264000Y-124848952D01*
X150216380Y-124896571D01*
X150121142Y-124944190D01*
X149740190Y-124944190D01*
X150930666Y-124420380D02*
X151025904Y-124420380D01*
X151121142Y-124468000D01*
X151168761Y-124515619D01*
X151216380Y-124610857D01*
X151264000Y-124801333D01*
X151264000Y-125039428D01*
X151216380Y-125229904D01*
X151168761Y-125325142D01*
X151121142Y-125372761D01*
X151025904Y-125420380D01*
X150930666Y-125420380D01*
X150835428Y-125372761D01*
X150787809Y-125325142D01*
X150740190Y-125229904D01*
X150692571Y-125039428D01*
X150692571Y-124801333D01*
X150740190Y-124610857D01*
X150787809Y-124515619D01*
X150835428Y-124468000D01*
X150930666Y-124420380D01*
X151692571Y-125325142D02*
X151740190Y-125372761D01*
X151692571Y-125420380D01*
X151644952Y-125372761D01*
X151692571Y-125325142D01*
X151692571Y-125420380D01*
X152692571Y-125420380D02*
X152121142Y-125420380D01*
X152406857Y-125420380D02*
X152406857Y-124420380D01*
X152311619Y-124563238D01*
X152216380Y-124658476D01*
X152121142Y-124706095D01*
D11*
G36*
X148221744Y-103519918D02*
G01*
X148277201Y-103547568D01*
X148326148Y-103598480D01*
X148339629Y-103617338D01*
X148354314Y-103642015D01*
X148363842Y-103668816D01*
X148369293Y-103704587D01*
X148371747Y-103756169D01*
X148372286Y-103824267D01*
X148369852Y-103917588D01*
X148361394Y-103987657D01*
X148345174Y-104039931D01*
X148319454Y-104079869D01*
X148282497Y-104112929D01*
X148279782Y-104114886D01*
X148243360Y-104134908D01*
X148199502Y-104144815D01*
X148143724Y-104147257D01*
X148053048Y-104147257D01*
X148053010Y-104235283D01*
X148052166Y-104284308D01*
X148047024Y-104313065D01*
X148033587Y-104330311D01*
X148007858Y-104344808D01*
X148001679Y-104347769D01*
X147972764Y-104361648D01*
X147950376Y-104370414D01*
X147933729Y-104371171D01*
X147922036Y-104361023D01*
X147914510Y-104337073D01*
X147910366Y-104296426D01*
X147908815Y-104236186D01*
X147909071Y-104153455D01*
X147910349Y-104045339D01*
X147910748Y-104013000D01*
X147912185Y-103901524D01*
X147913472Y-103828603D01*
X148052971Y-103828603D01*
X148053755Y-103890499D01*
X148057240Y-103930997D01*
X148065124Y-103957708D01*
X148079105Y-103978244D01*
X148088597Y-103988260D01*
X148127404Y-104017567D01*
X148161763Y-104019952D01*
X148197216Y-103995750D01*
X148198114Y-103994857D01*
X148212539Y-103976153D01*
X148221313Y-103950732D01*
X148225739Y-103911584D01*
X148227118Y-103851697D01*
X148227143Y-103838430D01*
X148223812Y-103755901D01*
X148212969Y-103698691D01*
X148193340Y-103663766D01*
X148163650Y-103648094D01*
X148146491Y-103646514D01*
X148105766Y-103653926D01*
X148077832Y-103678330D01*
X148061017Y-103722980D01*
X148053650Y-103791130D01*
X148052971Y-103828603D01*
X147913472Y-103828603D01*
X147913708Y-103815245D01*
X147915677Y-103750333D01*
X147918450Y-103702958D01*
X147922388Y-103669290D01*
X147927849Y-103645498D01*
X147935192Y-103627753D01*
X147944777Y-103612224D01*
X147948887Y-103606381D01*
X148003405Y-103551185D01*
X148072336Y-103519890D01*
X148152072Y-103511165D01*
X148221744Y-103519918D01*
G37*
X148221744Y-103519918D02*
X148277201Y-103547568D01*
X148326148Y-103598480D01*
X148339629Y-103617338D01*
X148354314Y-103642015D01*
X148363842Y-103668816D01*
X148369293Y-103704587D01*
X148371747Y-103756169D01*
X148372286Y-103824267D01*
X148369852Y-103917588D01*
X148361394Y-103987657D01*
X148345174Y-104039931D01*
X148319454Y-104079869D01*
X148282497Y-104112929D01*
X148279782Y-104114886D01*
X148243360Y-104134908D01*
X148199502Y-104144815D01*
X148143724Y-104147257D01*
X148053048Y-104147257D01*
X148053010Y-104235283D01*
X148052166Y-104284308D01*
X148047024Y-104313065D01*
X148033587Y-104330311D01*
X148007858Y-104344808D01*
X148001679Y-104347769D01*
X147972764Y-104361648D01*
X147950376Y-104370414D01*
X147933729Y-104371171D01*
X147922036Y-104361023D01*
X147914510Y-104337073D01*
X147910366Y-104296426D01*
X147908815Y-104236186D01*
X147909071Y-104153455D01*
X147910349Y-104045339D01*
X147910748Y-104013000D01*
X147912185Y-103901524D01*
X147913472Y-103828603D01*
X148052971Y-103828603D01*
X148053755Y-103890499D01*
X148057240Y-103930997D01*
X148065124Y-103957708D01*
X148079105Y-103978244D01*
X148088597Y-103988260D01*
X148127404Y-104017567D01*
X148161763Y-104019952D01*
X148197216Y-103995750D01*
X148198114Y-103994857D01*
X148212539Y-103976153D01*
X148221313Y-103950732D01*
X148225739Y-103911584D01*
X148227118Y-103851697D01*
X148227143Y-103838430D01*
X148223812Y-103755901D01*
X148212969Y-103698691D01*
X148193340Y-103663766D01*
X148163650Y-103648094D01*
X148146491Y-103646514D01*
X148105766Y-103653926D01*
X148077832Y-103678330D01*
X148061017Y-103722980D01*
X148053650Y-103791130D01*
X148052971Y-103828603D01*
X147913472Y-103828603D01*
X147913708Y-103815245D01*
X147915677Y-103750333D01*
X147918450Y-103702958D01*
X147922388Y-103669290D01*
X147927849Y-103645498D01*
X147935192Y-103627753D01*
X147944777Y-103612224D01*
X147948887Y-103606381D01*
X148003405Y-103551185D01*
X148072336Y-103519890D01*
X148152072Y-103511165D01*
X148221744Y-103519918D01*
G36*
X149338093Y-103527780D02*
G01*
X149384672Y-103554723D01*
X149417057Y-103581466D01*
X149440742Y-103609484D01*
X149457059Y-103643748D01*
X149467339Y-103689227D01*
X149472914Y-103750892D01*
X149475116Y-103833711D01*
X149475371Y-103893246D01*
X149475371Y-104112391D01*
X149413686Y-104140044D01*
X149352000Y-104167697D01*
X149344743Y-103927670D01*
X149341744Y-103838028D01*
X149338598Y-103772962D01*
X149334701Y-103728026D01*
X149329447Y-103698770D01*
X149322231Y-103680748D01*
X149312450Y-103669511D01*
X149309312Y-103667079D01*
X149261761Y-103648083D01*
X149213697Y-103655600D01*
X149185086Y-103675543D01*
X149173447Y-103689675D01*
X149165391Y-103708220D01*
X149160271Y-103736334D01*
X149157441Y-103779173D01*
X149156256Y-103841895D01*
X149156057Y-103907261D01*
X149156018Y-103989268D01*
X149154614Y-104047316D01*
X149149914Y-104086465D01*
X149139987Y-104111780D01*
X149122903Y-104128323D01*
X149096732Y-104141156D01*
X149061775Y-104154491D01*
X149023596Y-104169007D01*
X149028141Y-103911389D01*
X149029971Y-103818519D01*
X149032112Y-103749889D01*
X149035181Y-103700711D01*
X149039794Y-103666198D01*
X149046568Y-103641562D01*
X149056119Y-103622016D01*
X149067634Y-103604770D01*
X149123190Y-103549680D01*
X149190980Y-103517822D01*
X149264713Y-103510191D01*
X149338093Y-103527780D01*
G37*
X149338093Y-103527780D02*
X149384672Y-103554723D01*
X149417057Y-103581466D01*
X149440742Y-103609484D01*
X149457059Y-103643748D01*
X149467339Y-103689227D01*
X149472914Y-103750892D01*
X149475116Y-103833711D01*
X149475371Y-103893246D01*
X149475371Y-104112391D01*
X149413686Y-104140044D01*
X149352000Y-104167697D01*
X149344743Y-103927670D01*
X149341744Y-103838028D01*
X149338598Y-103772962D01*
X149334701Y-103728026D01*
X149329447Y-103698770D01*
X149322231Y-103680748D01*
X149312450Y-103669511D01*
X149309312Y-103667079D01*
X149261761Y-103648083D01*
X149213697Y-103655600D01*
X149185086Y-103675543D01*
X149173447Y-103689675D01*
X149165391Y-103708220D01*
X149160271Y-103736334D01*
X149157441Y-103779173D01*
X149156256Y-103841895D01*
X149156057Y-103907261D01*
X149156018Y-103989268D01*
X149154614Y-104047316D01*
X149149914Y-104086465D01*
X149139987Y-104111780D01*
X149122903Y-104128323D01*
X149096732Y-104141156D01*
X149061775Y-104154491D01*
X149023596Y-104169007D01*
X149028141Y-103911389D01*
X149029971Y-103818519D01*
X149032112Y-103749889D01*
X149035181Y-103700711D01*
X149039794Y-103666198D01*
X149046568Y-103641562D01*
X149056119Y-103622016D01*
X149067634Y-103604770D01*
X149123190Y-103549680D01*
X149190980Y-103517822D01*
X149264713Y-103510191D01*
X149338093Y-103527780D01*
G36*
X147663115Y-103521962D02*
G01*
X147731145Y-103557733D01*
X147781351Y-103615301D01*
X147799185Y-103652312D01*
X147813063Y-103707882D01*
X147820167Y-103778096D01*
X147820840Y-103854727D01*
X147815427Y-103929552D01*
X147804270Y-103994342D01*
X147787714Y-104040873D01*
X147782626Y-104048887D01*
X147722355Y-104108707D01*
X147650769Y-104144535D01*
X147573092Y-104155020D01*
X147494548Y-104138810D01*
X147472689Y-104129092D01*
X147430122Y-104099143D01*
X147392763Y-104059433D01*
X147389232Y-104054397D01*
X147374881Y-104030124D01*
X147365394Y-104004178D01*
X147359790Y-103970022D01*
X147357086Y-103921119D01*
X147356299Y-103850935D01*
X147356286Y-103835200D01*
X147356322Y-103830192D01*
X147501429Y-103830192D01*
X147502273Y-103896430D01*
X147505596Y-103940386D01*
X147512583Y-103968779D01*
X147524416Y-103988325D01*
X147530457Y-103994857D01*
X147565186Y-104019680D01*
X147598903Y-104018548D01*
X147632995Y-103997016D01*
X147653329Y-103974029D01*
X147665371Y-103940478D01*
X147672134Y-103887569D01*
X147672598Y-103881399D01*
X147673752Y-103785513D01*
X147661688Y-103714299D01*
X147636570Y-103668194D01*
X147598560Y-103647635D01*
X147584992Y-103646514D01*
X147549364Y-103652152D01*
X147524994Y-103671686D01*
X147510093Y-103709042D01*
X147502875Y-103768150D01*
X147501429Y-103830192D01*
X147356322Y-103830192D01*
X147356826Y-103760413D01*
X147359096Y-103708159D01*
X147364068Y-103671949D01*
X147372713Y-103645299D01*
X147386005Y-103621722D01*
X147388943Y-103617338D01*
X147438313Y-103558249D01*
X147492109Y-103523947D01*
X147557602Y-103510331D01*
X147579842Y-103509665D01*
X147663115Y-103521962D01*
G37*
X147663115Y-103521962D02*
X147731145Y-103557733D01*
X147781351Y-103615301D01*
X147799185Y-103652312D01*
X147813063Y-103707882D01*
X147820167Y-103778096D01*
X147820840Y-103854727D01*
X147815427Y-103929552D01*
X147804270Y-103994342D01*
X147787714Y-104040873D01*
X147782626Y-104048887D01*
X147722355Y-104108707D01*
X147650769Y-104144535D01*
X147573092Y-104155020D01*
X147494548Y-104138810D01*
X147472689Y-104129092D01*
X147430122Y-104099143D01*
X147392763Y-104059433D01*
X147389232Y-104054397D01*
X147374881Y-104030124D01*
X147365394Y-104004178D01*
X147359790Y-103970022D01*
X147357086Y-103921119D01*
X147356299Y-103850935D01*
X147356286Y-103835200D01*
X147356322Y-103830192D01*
X147501429Y-103830192D01*
X147502273Y-103896430D01*
X147505596Y-103940386D01*
X147512583Y-103968779D01*
X147524416Y-103988325D01*
X147530457Y-103994857D01*
X147565186Y-104019680D01*
X147598903Y-104018548D01*
X147632995Y-103997016D01*
X147653329Y-103974029D01*
X147665371Y-103940478D01*
X147672134Y-103887569D01*
X147672598Y-103881399D01*
X147673752Y-103785513D01*
X147661688Y-103714299D01*
X147636570Y-103668194D01*
X147598560Y-103647635D01*
X147584992Y-103646514D01*
X147549364Y-103652152D01*
X147524994Y-103671686D01*
X147510093Y-103709042D01*
X147502875Y-103768150D01*
X147501429Y-103830192D01*
X147356322Y-103830192D01*
X147356826Y-103760413D01*
X147359096Y-103708159D01*
X147364068Y-103671949D01*
X147372713Y-103645299D01*
X147386005Y-103621722D01*
X147388943Y-103617338D01*
X147438313Y-103558249D01*
X147492109Y-103523947D01*
X147557602Y-103510331D01*
X147579842Y-103509665D01*
X147663115Y-103521962D01*
G36*
X148790303Y-103531239D02*
G01*
X148847527Y-103569735D01*
X148891749Y-103625335D01*
X148918167Y-103696086D01*
X148923510Y-103748162D01*
X148922903Y-103769893D01*
X148917822Y-103786531D01*
X148903855Y-103801437D01*
X148876589Y-103817973D01*
X148831612Y-103839498D01*
X148764511Y-103869374D01*
X148764171Y-103869524D01*
X148702407Y-103897813D01*
X148651759Y-103922933D01*
X148617404Y-103942179D01*
X148604518Y-103952848D01*
X148604514Y-103952934D01*
X148615872Y-103976166D01*
X148642431Y-104001774D01*
X148672923Y-104020221D01*
X148688370Y-104023886D01*
X148730515Y-104011212D01*
X148766808Y-103979471D01*
X148784517Y-103944572D01*
X148801552Y-103918845D01*
X148834922Y-103889546D01*
X148874149Y-103864235D01*
X148908756Y-103850471D01*
X148915993Y-103849714D01*
X148924139Y-103862160D01*
X148924630Y-103893972D01*
X148918643Y-103936866D01*
X148907357Y-103982558D01*
X148891950Y-104022761D01*
X148891171Y-104024322D01*
X148844804Y-104089062D01*
X148784711Y-104133097D01*
X148716465Y-104154711D01*
X148645638Y-104152185D01*
X148577804Y-104123804D01*
X148574788Y-104121808D01*
X148521427Y-104073448D01*
X148486340Y-104010352D01*
X148466922Y-103927387D01*
X148464316Y-103904078D01*
X148459701Y-103794055D01*
X148465233Y-103742748D01*
X148604514Y-103742748D01*
X148606324Y-103774753D01*
X148616222Y-103784093D01*
X148640898Y-103777105D01*
X148679795Y-103760587D01*
X148723275Y-103739881D01*
X148724356Y-103739333D01*
X148761209Y-103719949D01*
X148776000Y-103707013D01*
X148772353Y-103693451D01*
X148756995Y-103675632D01*
X148717923Y-103649845D01*
X148675846Y-103647950D01*
X148638103Y-103666717D01*
X148612034Y-103702915D01*
X148604514Y-103742748D01*
X148465233Y-103742748D01*
X148469194Y-103706027D01*
X148493550Y-103636212D01*
X148527456Y-103587302D01*
X148588653Y-103537878D01*
X148656063Y-103513359D01*
X148724880Y-103511797D01*
X148790303Y-103531239D01*
G37*
X148790303Y-103531239D02*
X148847527Y-103569735D01*
X148891749Y-103625335D01*
X148918167Y-103696086D01*
X148923510Y-103748162D01*
X148922903Y-103769893D01*
X148917822Y-103786531D01*
X148903855Y-103801437D01*
X148876589Y-103817973D01*
X148831612Y-103839498D01*
X148764511Y-103869374D01*
X148764171Y-103869524D01*
X148702407Y-103897813D01*
X148651759Y-103922933D01*
X148617404Y-103942179D01*
X148604518Y-103952848D01*
X148604514Y-103952934D01*
X148615872Y-103976166D01*
X148642431Y-104001774D01*
X148672923Y-104020221D01*
X148688370Y-104023886D01*
X148730515Y-104011212D01*
X148766808Y-103979471D01*
X148784517Y-103944572D01*
X148801552Y-103918845D01*
X148834922Y-103889546D01*
X148874149Y-103864235D01*
X148908756Y-103850471D01*
X148915993Y-103849714D01*
X148924139Y-103862160D01*
X148924630Y-103893972D01*
X148918643Y-103936866D01*
X148907357Y-103982558D01*
X148891950Y-104022761D01*
X148891171Y-104024322D01*
X148844804Y-104089062D01*
X148784711Y-104133097D01*
X148716465Y-104154711D01*
X148645638Y-104152185D01*
X148577804Y-104123804D01*
X148574788Y-104121808D01*
X148521427Y-104073448D01*
X148486340Y-104010352D01*
X148466922Y-103927387D01*
X148464316Y-103904078D01*
X148459701Y-103794055D01*
X148465233Y-103742748D01*
X148604514Y-103742748D01*
X148606324Y-103774753D01*
X148616222Y-103784093D01*
X148640898Y-103777105D01*
X148679795Y-103760587D01*
X148723275Y-103739881D01*
X148724356Y-103739333D01*
X148761209Y-103719949D01*
X148776000Y-103707013D01*
X148772353Y-103693451D01*
X148756995Y-103675632D01*
X148717923Y-103649845D01*
X148675846Y-103647950D01*
X148638103Y-103666717D01*
X148612034Y-103702915D01*
X148604514Y-103742748D01*
X148465233Y-103742748D01*
X148469194Y-103706027D01*
X148493550Y-103636212D01*
X148527456Y-103587302D01*
X148588653Y-103537878D01*
X148656063Y-103513359D01*
X148724880Y-103511797D01*
X148790303Y-103531239D01*
G36*
X149997886Y-103451289D02*
G01*
X150002139Y-103510613D01*
X150007025Y-103545572D01*
X150013795Y-103560820D01*
X150023702Y-103561015D01*
X150026914Y-103559195D01*
X150069644Y-103546015D01*
X150125227Y-103546785D01*
X150181737Y-103560333D01*
X150217082Y-103577861D01*
X150253321Y-103605861D01*
X150279813Y-103637549D01*
X150297999Y-103677813D01*
X150309322Y-103731543D01*
X150315222Y-103803626D01*
X150317143Y-103898951D01*
X150317177Y-103917237D01*
X150317200Y-104122646D01*
X150271491Y-104138580D01*
X150239027Y-104149420D01*
X150221215Y-104154468D01*
X150220691Y-104154514D01*
X150218937Y-104140828D01*
X150217444Y-104103076D01*
X150216326Y-104046224D01*
X150215697Y-103975234D01*
X150215600Y-103932073D01*
X150215398Y-103846973D01*
X150214358Y-103785981D01*
X150211831Y-103744177D01*
X150207164Y-103716642D01*
X150199707Y-103698456D01*
X150188811Y-103684698D01*
X150182007Y-103678073D01*
X150135272Y-103651375D01*
X150084272Y-103649375D01*
X150038001Y-103671955D01*
X150029444Y-103680107D01*
X150016893Y-103695436D01*
X150008188Y-103713618D01*
X150002631Y-103739909D01*
X149999526Y-103779562D01*
X149998176Y-103837832D01*
X149997886Y-103918173D01*
X149997886Y-104122646D01*
X149952177Y-104138580D01*
X149919713Y-104149420D01*
X149901901Y-104154468D01*
X149901377Y-104154514D01*
X149900037Y-104140623D01*
X149898828Y-104101439D01*
X149897801Y-104040700D01*
X149897002Y-103962141D01*
X149896481Y-103869498D01*
X149896286Y-103766509D01*
X149896286Y-103369342D01*
X149943457Y-103349444D01*
X149990629Y-103329547D01*
X149997886Y-103451289D01*
G37*
X149997886Y-103451289D02*
X150002139Y-103510613D01*
X150007025Y-103545572D01*
X150013795Y-103560820D01*
X150023702Y-103561015D01*
X150026914Y-103559195D01*
X150069644Y-103546015D01*
X150125227Y-103546785D01*
X150181737Y-103560333D01*
X150217082Y-103577861D01*
X150253321Y-103605861D01*
X150279813Y-103637549D01*
X150297999Y-103677813D01*
X150309322Y-103731543D01*
X150315222Y-103803626D01*
X150317143Y-103898951D01*
X150317177Y-103917237D01*
X150317200Y-104122646D01*
X150271491Y-104138580D01*
X150239027Y-104149420D01*
X150221215Y-104154468D01*
X150220691Y-104154514D01*
X150218937Y-104140828D01*
X150217444Y-104103076D01*
X150216326Y-104046224D01*
X150215697Y-103975234D01*
X150215600Y-103932073D01*
X150215398Y-103846973D01*
X150214358Y-103785981D01*
X150211831Y-103744177D01*
X150207164Y-103716642D01*
X150199707Y-103698456D01*
X150188811Y-103684698D01*
X150182007Y-103678073D01*
X150135272Y-103651375D01*
X150084272Y-103649375D01*
X150038001Y-103671955D01*
X150029444Y-103680107D01*
X150016893Y-103695436D01*
X150008188Y-103713618D01*
X150002631Y-103739909D01*
X149999526Y-103779562D01*
X149998176Y-103837832D01*
X149997886Y-103918173D01*
X149997886Y-104122646D01*
X149952177Y-104138580D01*
X149919713Y-104149420D01*
X149901901Y-104154468D01*
X149901377Y-104154514D01*
X149900037Y-104140623D01*
X149898828Y-104101439D01*
X149897801Y-104040700D01*
X149897002Y-103962141D01*
X149896481Y-103869498D01*
X149896286Y-103766509D01*
X149896286Y-103369342D01*
X149943457Y-103349444D01*
X149990629Y-103329547D01*
X149997886Y-103451289D01*
G36*
X150661744Y-103550968D02*
G01*
X150718616Y-103572087D01*
X150719267Y-103572493D01*
X150754440Y-103598380D01*
X150780407Y-103628633D01*
X150798670Y-103668058D01*
X150810732Y-103721462D01*
X150818096Y-103793651D01*
X150822264Y-103889432D01*
X150822629Y-103903078D01*
X150827876Y-104108842D01*
X150783716Y-104131678D01*
X150751763Y-104147110D01*
X150732470Y-104154423D01*
X150731578Y-104154514D01*
X150728239Y-104141022D01*
X150725587Y-104104626D01*
X150723956Y-104051452D01*
X150723600Y-104008393D01*
X150723592Y-103938641D01*
X150720403Y-103894837D01*
X150709288Y-103873944D01*
X150685501Y-103872925D01*
X150644296Y-103888741D01*
X150582086Y-103917815D01*
X150536341Y-103941963D01*
X150512813Y-103962913D01*
X150505896Y-103985747D01*
X150505886Y-103986877D01*
X150517299Y-104026212D01*
X150551092Y-104047462D01*
X150602809Y-104050539D01*
X150640061Y-104050006D01*
X150659703Y-104060735D01*
X150671952Y-104086505D01*
X150679002Y-104119337D01*
X150668842Y-104137966D01*
X150665017Y-104140632D01*
X150629001Y-104151340D01*
X150578566Y-104152856D01*
X150526626Y-104145759D01*
X150489822Y-104132788D01*
X150438938Y-104089585D01*
X150410014Y-104029446D01*
X150404286Y-103982462D01*
X150408657Y-103940082D01*
X150424475Y-103905488D01*
X150455797Y-103874763D01*
X150506678Y-103843990D01*
X150581176Y-103809252D01*
X150585714Y-103807288D01*
X150652821Y-103776287D01*
X150694232Y-103750862D01*
X150711981Y-103728014D01*
X150708107Y-103704745D01*
X150684643Y-103678056D01*
X150677627Y-103671914D01*
X150630630Y-103648100D01*
X150581933Y-103649103D01*
X150539522Y-103672451D01*
X150511384Y-103715675D01*
X150508769Y-103724160D01*
X150483308Y-103765308D01*
X150451001Y-103785128D01*
X150404286Y-103804770D01*
X150404286Y-103753950D01*
X150418496Y-103680082D01*
X150460675Y-103612327D01*
X150482624Y-103589661D01*
X150532517Y-103560569D01*
X150595967Y-103547400D01*
X150661744Y-103550968D01*
G37*
X150661744Y-103550968D02*
X150718616Y-103572087D01*
X150719267Y-103572493D01*
X150754440Y-103598380D01*
X150780407Y-103628633D01*
X150798670Y-103668058D01*
X150810732Y-103721462D01*
X150818096Y-103793651D01*
X150822264Y-103889432D01*
X150822629Y-103903078D01*
X150827876Y-104108842D01*
X150783716Y-104131678D01*
X150751763Y-104147110D01*
X150732470Y-104154423D01*
X150731578Y-104154514D01*
X150728239Y-104141022D01*
X150725587Y-104104626D01*
X150723956Y-104051452D01*
X150723600Y-104008393D01*
X150723592Y-103938641D01*
X150720403Y-103894837D01*
X150709288Y-103873944D01*
X150685501Y-103872925D01*
X150644296Y-103888741D01*
X150582086Y-103917815D01*
X150536341Y-103941963D01*
X150512813Y-103962913D01*
X150505896Y-103985747D01*
X150505886Y-103986877D01*
X150517299Y-104026212D01*
X150551092Y-104047462D01*
X150602809Y-104050539D01*
X150640061Y-104050006D01*
X150659703Y-104060735D01*
X150671952Y-104086505D01*
X150679002Y-104119337D01*
X150668842Y-104137966D01*
X150665017Y-104140632D01*
X150629001Y-104151340D01*
X150578566Y-104152856D01*
X150526626Y-104145759D01*
X150489822Y-104132788D01*
X150438938Y-104089585D01*
X150410014Y-104029446D01*
X150404286Y-103982462D01*
X150408657Y-103940082D01*
X150424475Y-103905488D01*
X150455797Y-103874763D01*
X150506678Y-103843990D01*
X150581176Y-103809252D01*
X150585714Y-103807288D01*
X150652821Y-103776287D01*
X150694232Y-103750862D01*
X150711981Y-103728014D01*
X150708107Y-103704745D01*
X150684643Y-103678056D01*
X150677627Y-103671914D01*
X150630630Y-103648100D01*
X150581933Y-103649103D01*
X150539522Y-103672451D01*
X150511384Y-103715675D01*
X150508769Y-103724160D01*
X150483308Y-103765308D01*
X150451001Y-103785128D01*
X150404286Y-103804770D01*
X150404286Y-103753950D01*
X150418496Y-103680082D01*
X150460675Y-103612327D01*
X150482624Y-103589661D01*
X150532517Y-103560569D01*
X150595967Y-103547400D01*
X150661744Y-103550968D01*
G36*
X151151926Y-103549755D02*
G01*
X151217858Y-103574084D01*
X151271273Y-103617117D01*
X151292164Y-103647409D01*
X151314939Y-103702994D01*
X151314466Y-103743186D01*
X151290562Y-103770217D01*
X151281717Y-103774813D01*
X151243530Y-103789144D01*
X151224028Y-103785472D01*
X151217422Y-103761407D01*
X151217086Y-103748114D01*
X151204992Y-103699210D01*
X151173471Y-103664999D01*
X151129659Y-103648476D01*
X151080695Y-103652634D01*
X151040894Y-103674227D01*
X151027450Y-103686544D01*
X151017921Y-103701487D01*
X151011485Y-103724075D01*
X151007317Y-103759328D01*
X151004597Y-103812266D01*
X151002502Y-103887907D01*
X151001960Y-103911857D01*
X150999981Y-103993790D01*
X150997731Y-104051455D01*
X150994357Y-104089608D01*
X150989006Y-104113004D01*
X150980824Y-104126398D01*
X150968959Y-104134545D01*
X150961362Y-104138144D01*
X150929102Y-104150452D01*
X150910111Y-104154514D01*
X150903836Y-104140948D01*
X150900006Y-104099934D01*
X150898600Y-104030999D01*
X150899598Y-103933669D01*
X150899908Y-103918657D01*
X150902101Y-103829859D01*
X150904693Y-103765019D01*
X150908382Y-103719067D01*
X150913864Y-103686935D01*
X150921835Y-103663553D01*
X150932993Y-103643852D01*
X150938830Y-103635410D01*
X150972296Y-103598057D01*
X151009727Y-103569003D01*
X151014309Y-103566467D01*
X151081426Y-103546443D01*
X151151926Y-103549755D01*
G37*
X151151926Y-103549755D02*
X151217858Y-103574084D01*
X151271273Y-103617117D01*
X151292164Y-103647409D01*
X151314939Y-103702994D01*
X151314466Y-103743186D01*
X151290562Y-103770217D01*
X151281717Y-103774813D01*
X151243530Y-103789144D01*
X151224028Y-103785472D01*
X151217422Y-103761407D01*
X151217086Y-103748114D01*
X151204992Y-103699210D01*
X151173471Y-103664999D01*
X151129659Y-103648476D01*
X151080695Y-103652634D01*
X151040894Y-103674227D01*
X151027450Y-103686544D01*
X151017921Y-103701487D01*
X151011485Y-103724075D01*
X151007317Y-103759328D01*
X151004597Y-103812266D01*
X151002502Y-103887907D01*
X151001960Y-103911857D01*
X150999981Y-103993790D01*
X150997731Y-104051455D01*
X150994357Y-104089608D01*
X150989006Y-104113004D01*
X150980824Y-104126398D01*
X150968959Y-104134545D01*
X150961362Y-104138144D01*
X150929102Y-104150452D01*
X150910111Y-104154514D01*
X150903836Y-104140948D01*
X150900006Y-104099934D01*
X150898600Y-104030999D01*
X150899598Y-103933669D01*
X150899908Y-103918657D01*
X150902101Y-103829859D01*
X150904693Y-103765019D01*
X150908382Y-103719067D01*
X150913864Y-103686935D01*
X150921835Y-103663553D01*
X150932993Y-103643852D01*
X150938830Y-103635410D01*
X150972296Y-103598057D01*
X151009727Y-103569003D01*
X151014309Y-103566467D01*
X151081426Y-103546443D01*
X151151926Y-103549755D01*
G36*
X151812117Y-103665358D02*
G01*
X151811933Y-103773837D01*
X151811219Y-103857287D01*
X151809675Y-103919704D01*
X151807001Y-103965085D01*
X151802894Y-103997429D01*
X151797055Y-104020733D01*
X151789182Y-104038995D01*
X151783221Y-104049418D01*
X151733855Y-104105945D01*
X151671264Y-104141377D01*
X151602013Y-104154090D01*
X151532668Y-104142463D01*
X151491375Y-104121568D01*
X151448025Y-104085422D01*
X151418481Y-104041276D01*
X151400655Y-103983462D01*
X151392463Y-103906313D01*
X151391302Y-103849714D01*
X151391458Y-103845647D01*
X151492857Y-103845647D01*
X151493476Y-103910550D01*
X151496314Y-103953514D01*
X151502840Y-103981622D01*
X151514523Y-104001953D01*
X151528483Y-104017288D01*
X151575365Y-104046890D01*
X151625701Y-104049419D01*
X151673276Y-104024705D01*
X151676979Y-104021356D01*
X151692783Y-104003935D01*
X151702693Y-103983209D01*
X151708058Y-103952362D01*
X151710228Y-103904577D01*
X151710571Y-103851748D01*
X151709827Y-103785381D01*
X151706748Y-103741106D01*
X151700061Y-103712009D01*
X151688496Y-103691173D01*
X151679013Y-103680107D01*
X151634960Y-103652198D01*
X151584224Y-103648843D01*
X151535796Y-103670159D01*
X151526450Y-103678073D01*
X151510540Y-103695647D01*
X151500610Y-103716587D01*
X151495278Y-103747782D01*
X151493163Y-103796122D01*
X151492857Y-103845647D01*
X151391458Y-103845647D01*
X151394810Y-103758568D01*
X151406726Y-103690086D01*
X151429135Y-103638600D01*
X151464124Y-103598443D01*
X151491375Y-103577861D01*
X151540907Y-103555625D01*
X151598316Y-103545304D01*
X151651682Y-103548067D01*
X151681543Y-103559212D01*
X151693261Y-103562383D01*
X151701037Y-103550557D01*
X151706465Y-103518866D01*
X151710571Y-103470593D01*
X151715067Y-103416829D01*
X151721313Y-103384482D01*
X151732676Y-103365985D01*
X151752528Y-103353770D01*
X151765000Y-103348362D01*
X151812171Y-103328601D01*
X151812117Y-103665358D01*
G37*
X151812117Y-103665358D02*
X151811933Y-103773837D01*
X151811219Y-103857287D01*
X151809675Y-103919704D01*
X151807001Y-103965085D01*
X151802894Y-103997429D01*
X151797055Y-104020733D01*
X151789182Y-104038995D01*
X151783221Y-104049418D01*
X151733855Y-104105945D01*
X151671264Y-104141377D01*
X151602013Y-104154090D01*
X151532668Y-104142463D01*
X151491375Y-104121568D01*
X151448025Y-104085422D01*
X151418481Y-104041276D01*
X151400655Y-103983462D01*
X151392463Y-103906313D01*
X151391302Y-103849714D01*
X151391458Y-103845647D01*
X151492857Y-103845647D01*
X151493476Y-103910550D01*
X151496314Y-103953514D01*
X151502840Y-103981622D01*
X151514523Y-104001953D01*
X151528483Y-104017288D01*
X151575365Y-104046890D01*
X151625701Y-104049419D01*
X151673276Y-104024705D01*
X151676979Y-104021356D01*
X151692783Y-104003935D01*
X151702693Y-103983209D01*
X151708058Y-103952362D01*
X151710228Y-103904577D01*
X151710571Y-103851748D01*
X151709827Y-103785381D01*
X151706748Y-103741106D01*
X151700061Y-103712009D01*
X151688496Y-103691173D01*
X151679013Y-103680107D01*
X151634960Y-103652198D01*
X151584224Y-103648843D01*
X151535796Y-103670159D01*
X151526450Y-103678073D01*
X151510540Y-103695647D01*
X151500610Y-103716587D01*
X151495278Y-103747782D01*
X151493163Y-103796122D01*
X151492857Y-103845647D01*
X151391458Y-103845647D01*
X151394810Y-103758568D01*
X151406726Y-103690086D01*
X151429135Y-103638600D01*
X151464124Y-103598443D01*
X151491375Y-103577861D01*
X151540907Y-103555625D01*
X151598316Y-103545304D01*
X151651682Y-103548067D01*
X151681543Y-103559212D01*
X151693261Y-103562383D01*
X151701037Y-103550557D01*
X151706465Y-103518866D01*
X151710571Y-103470593D01*
X151715067Y-103416829D01*
X151721313Y-103384482D01*
X151732676Y-103365985D01*
X151752528Y-103353770D01*
X151765000Y-103348362D01*
X151812171Y-103328601D01*
X151812117Y-103665358D01*
G36*
X152401833Y-103558663D02*
G01*
X152404048Y-103596850D01*
X152405784Y-103654886D01*
X152406899Y-103728180D01*
X152407257Y-103805055D01*
X152407257Y-104065196D01*
X152361326Y-104111127D01*
X152329675Y-104139429D01*
X152301890Y-104150893D01*
X152263915Y-104150168D01*
X152248840Y-104148321D01*
X152201726Y-104142948D01*
X152162756Y-104139869D01*
X152153257Y-104139585D01*
X152121233Y-104141445D01*
X152075432Y-104146114D01*
X152057674Y-104148321D01*
X152014057Y-104151735D01*
X151984745Y-104144320D01*
X151955680Y-104121427D01*
X151945188Y-104111127D01*
X151899257Y-104065196D01*
X151899257Y-103578602D01*
X151936226Y-103561758D01*
X151968059Y-103549282D01*
X151986683Y-103544914D01*
X151991458Y-103558718D01*
X151995921Y-103597286D01*
X151999775Y-103656356D01*
X152002722Y-103731663D01*
X152004143Y-103795286D01*
X152008114Y-104045657D01*
X152042759Y-104050556D01*
X152074268Y-104047131D01*
X152089708Y-104036041D01*
X152094023Y-104015308D01*
X152097708Y-103971145D01*
X152100469Y-103909146D01*
X152102012Y-103834909D01*
X152102235Y-103796706D01*
X152102457Y-103576783D01*
X152148166Y-103560849D01*
X152180518Y-103550015D01*
X152198115Y-103544962D01*
X152198623Y-103544914D01*
X152200388Y-103558648D01*
X152202329Y-103596730D01*
X152204282Y-103654482D01*
X152206084Y-103727227D01*
X152207343Y-103795286D01*
X152211314Y-104045657D01*
X152298400Y-104045657D01*
X152302396Y-103817240D01*
X152306392Y-103588822D01*
X152348847Y-103566868D01*
X152380192Y-103551793D01*
X152398744Y-103544951D01*
X152399279Y-103544914D01*
X152401833Y-103558663D01*
G37*
X152401833Y-103558663D02*
X152404048Y-103596850D01*
X152405784Y-103654886D01*
X152406899Y-103728180D01*
X152407257Y-103805055D01*
X152407257Y-104065196D01*
X152361326Y-104111127D01*
X152329675Y-104139429D01*
X152301890Y-104150893D01*
X152263915Y-104150168D01*
X152248840Y-104148321D01*
X152201726Y-104142948D01*
X152162756Y-104139869D01*
X152153257Y-104139585D01*
X152121233Y-104141445D01*
X152075432Y-104146114D01*
X152057674Y-104148321D01*
X152014057Y-104151735D01*
X151984745Y-104144320D01*
X151955680Y-104121427D01*
X151945188Y-104111127D01*
X151899257Y-104065196D01*
X151899257Y-103578602D01*
X151936226Y-103561758D01*
X151968059Y-103549282D01*
X151986683Y-103544914D01*
X151991458Y-103558718D01*
X151995921Y-103597286D01*
X151999775Y-103656356D01*
X152002722Y-103731663D01*
X152004143Y-103795286D01*
X152008114Y-104045657D01*
X152042759Y-104050556D01*
X152074268Y-104047131D01*
X152089708Y-104036041D01*
X152094023Y-104015308D01*
X152097708Y-103971145D01*
X152100469Y-103909146D01*
X152102012Y-103834909D01*
X152102235Y-103796706D01*
X152102457Y-103576783D01*
X152148166Y-103560849D01*
X152180518Y-103550015D01*
X152198115Y-103544962D01*
X152198623Y-103544914D01*
X152200388Y-103558648D01*
X152202329Y-103596730D01*
X152204282Y-103654482D01*
X152206084Y-103727227D01*
X152207343Y-103795286D01*
X152211314Y-104045657D01*
X152298400Y-104045657D01*
X152302396Y-103817240D01*
X152306392Y-103588822D01*
X152348847Y-103566868D01*
X152380192Y-103551793D01*
X152398744Y-103544951D01*
X152399279Y-103544914D01*
X152401833Y-103558663D01*
G36*
X152766876Y-103556335D02*
G01*
X152808667Y-103575344D01*
X152841469Y-103598378D01*
X152865503Y-103624133D01*
X152882097Y-103657358D01*
X152892577Y-103702800D01*
X152898271Y-103765207D01*
X152900507Y-103849327D01*
X152900743Y-103904721D01*
X152900743Y-104120826D01*
X152863774Y-104137670D01*
X152834656Y-104149981D01*
X152820231Y-104154514D01*
X152817472Y-104141025D01*
X152815282Y-104104653D01*
X152813942Y-104051542D01*
X152813657Y-104009372D01*
X152812434Y-103948447D01*
X152809136Y-103900115D01*
X152804321Y-103870518D01*
X152800496Y-103864229D01*
X152774783Y-103870652D01*
X152734418Y-103887125D01*
X152687679Y-103909458D01*
X152642845Y-103933457D01*
X152608193Y-103954930D01*
X152592002Y-103969685D01*
X152591938Y-103969845D01*
X152593330Y-103997152D01*
X152605818Y-104023219D01*
X152627743Y-104044392D01*
X152659743Y-104051474D01*
X152687092Y-104050649D01*
X152725826Y-104050042D01*
X152746158Y-104059116D01*
X152758369Y-104083092D01*
X152759909Y-104087613D01*
X152765203Y-104121806D01*
X152751047Y-104142568D01*
X152714148Y-104152462D01*
X152674289Y-104154292D01*
X152602562Y-104140727D01*
X152565432Y-104121355D01*
X152519576Y-104075845D01*
X152495256Y-104019983D01*
X152493073Y-103960957D01*
X152513629Y-103905953D01*
X152544549Y-103871486D01*
X152575420Y-103852189D01*
X152623942Y-103827759D01*
X152680485Y-103802985D01*
X152689910Y-103799199D01*
X152752019Y-103771791D01*
X152787822Y-103747634D01*
X152799337Y-103723619D01*
X152788580Y-103696635D01*
X152770114Y-103675543D01*
X152726469Y-103649572D01*
X152678446Y-103647624D01*
X152634406Y-103667637D01*
X152602709Y-103707551D01*
X152598549Y-103717848D01*
X152574327Y-103755724D01*
X152538965Y-103783842D01*
X152494343Y-103806917D01*
X152494343Y-103741485D01*
X152496969Y-103701506D01*
X152508230Y-103669997D01*
X152533199Y-103636378D01*
X152557169Y-103610484D01*
X152594441Y-103573817D01*
X152623401Y-103554121D01*
X152654505Y-103546220D01*
X152689713Y-103544914D01*
X152766876Y-103556335D01*
G37*
X152766876Y-103556335D02*
X152808667Y-103575344D01*
X152841469Y-103598378D01*
X152865503Y-103624133D01*
X152882097Y-103657358D01*
X152892577Y-103702800D01*
X152898271Y-103765207D01*
X152900507Y-103849327D01*
X152900743Y-103904721D01*
X152900743Y-104120826D01*
X152863774Y-104137670D01*
X152834656Y-104149981D01*
X152820231Y-104154514D01*
X152817472Y-104141025D01*
X152815282Y-104104653D01*
X152813942Y-104051542D01*
X152813657Y-104009372D01*
X152812434Y-103948447D01*
X152809136Y-103900115D01*
X152804321Y-103870518D01*
X152800496Y-103864229D01*
X152774783Y-103870652D01*
X152734418Y-103887125D01*
X152687679Y-103909458D01*
X152642845Y-103933457D01*
X152608193Y-103954930D01*
X152592002Y-103969685D01*
X152591938Y-103969845D01*
X152593330Y-103997152D01*
X152605818Y-104023219D01*
X152627743Y-104044392D01*
X152659743Y-104051474D01*
X152687092Y-104050649D01*
X152725826Y-104050042D01*
X152746158Y-104059116D01*
X152758369Y-104083092D01*
X152759909Y-104087613D01*
X152765203Y-104121806D01*
X152751047Y-104142568D01*
X152714148Y-104152462D01*
X152674289Y-104154292D01*
X152602562Y-104140727D01*
X152565432Y-104121355D01*
X152519576Y-104075845D01*
X152495256Y-104019983D01*
X152493073Y-103960957D01*
X152513629Y-103905953D01*
X152544549Y-103871486D01*
X152575420Y-103852189D01*
X152623942Y-103827759D01*
X152680485Y-103802985D01*
X152689910Y-103799199D01*
X152752019Y-103771791D01*
X152787822Y-103747634D01*
X152799337Y-103723619D01*
X152788580Y-103696635D01*
X152770114Y-103675543D01*
X152726469Y-103649572D01*
X152678446Y-103647624D01*
X152634406Y-103667637D01*
X152602709Y-103707551D01*
X152598549Y-103717848D01*
X152574327Y-103755724D01*
X152538965Y-103783842D01*
X152494343Y-103806917D01*
X152494343Y-103741485D01*
X152496969Y-103701506D01*
X152508230Y-103669997D01*
X152533199Y-103636378D01*
X152557169Y-103610484D01*
X152594441Y-103573817D01*
X152623401Y-103554121D01*
X152654505Y-103546220D01*
X152689713Y-103544914D01*
X152766876Y-103556335D01*
G36*
X153274600Y-103558752D02*
G01*
X153291948Y-103566334D01*
X153333356Y-103599128D01*
X153368765Y-103646547D01*
X153390664Y-103697151D01*
X153394229Y-103722098D01*
X153382279Y-103756927D01*
X153356067Y-103775357D01*
X153327964Y-103786516D01*
X153315095Y-103788572D01*
X153308829Y-103773649D01*
X153296456Y-103741175D01*
X153291028Y-103726502D01*
X153260590Y-103675744D01*
X153216520Y-103650427D01*
X153160010Y-103651206D01*
X153155825Y-103652203D01*
X153125655Y-103666507D01*
X153103476Y-103694393D01*
X153088327Y-103739287D01*
X153079250Y-103804615D01*
X153075286Y-103893804D01*
X153074914Y-103941261D01*
X153074730Y-104016071D01*
X153073522Y-104067069D01*
X153070309Y-104099471D01*
X153064109Y-104118495D01*
X153053940Y-104129356D01*
X153038819Y-104137272D01*
X153037946Y-104137670D01*
X153008828Y-104149981D01*
X152994403Y-104154514D01*
X152992186Y-104140809D01*
X152990289Y-104102925D01*
X152988847Y-104045715D01*
X152987998Y-103974027D01*
X152987829Y-103921565D01*
X152988692Y-103820047D01*
X152992070Y-103743032D01*
X152999142Y-103686023D01*
X153011088Y-103644526D01*
X153029090Y-103614043D01*
X153054327Y-103590080D01*
X153079247Y-103573355D01*
X153139171Y-103551097D01*
X153208911Y-103546076D01*
X153274600Y-103558752D01*
G37*
X153274600Y-103558752D02*
X153291948Y-103566334D01*
X153333356Y-103599128D01*
X153368765Y-103646547D01*
X153390664Y-103697151D01*
X153394229Y-103722098D01*
X153382279Y-103756927D01*
X153356067Y-103775357D01*
X153327964Y-103786516D01*
X153315095Y-103788572D01*
X153308829Y-103773649D01*
X153296456Y-103741175D01*
X153291028Y-103726502D01*
X153260590Y-103675744D01*
X153216520Y-103650427D01*
X153160010Y-103651206D01*
X153155825Y-103652203D01*
X153125655Y-103666507D01*
X153103476Y-103694393D01*
X153088327Y-103739287D01*
X153079250Y-103804615D01*
X153075286Y-103893804D01*
X153074914Y-103941261D01*
X153074730Y-104016071D01*
X153073522Y-104067069D01*
X153070309Y-104099471D01*
X153064109Y-104118495D01*
X153053940Y-104129356D01*
X153038819Y-104137272D01*
X153037946Y-104137670D01*
X153008828Y-104149981D01*
X152994403Y-104154514D01*
X152992186Y-104140809D01*
X152990289Y-104102925D01*
X152988847Y-104045715D01*
X152987998Y-103974027D01*
X152987829Y-103921565D01*
X152988692Y-103820047D01*
X152992070Y-103743032D01*
X152999142Y-103686023D01*
X153011088Y-103644526D01*
X153029090Y-103614043D01*
X153054327Y-103590080D01*
X153079247Y-103573355D01*
X153139171Y-103551097D01*
X153208911Y-103546076D01*
X153274600Y-103558752D01*
G36*
X153775595Y-103566966D02*
G01*
X153833021Y-103604497D01*
X153860719Y-103638096D01*
X153882662Y-103699064D01*
X153884405Y-103747308D01*
X153880457Y-103811816D01*
X153731686Y-103876934D01*
X153659349Y-103910202D01*
X153612084Y-103936964D01*
X153587507Y-103960144D01*
X153583237Y-103982667D01*
X153596889Y-104007455D01*
X153611943Y-104023886D01*
X153655746Y-104050235D01*
X153703389Y-104052081D01*
X153747145Y-104031546D01*
X153779289Y-103990752D01*
X153785038Y-103976347D01*
X153812576Y-103931356D01*
X153844258Y-103912182D01*
X153887714Y-103895779D01*
X153887714Y-103957966D01*
X153883872Y-104000283D01*
X153868823Y-104035969D01*
X153837280Y-104076943D01*
X153832592Y-104082267D01*
X153797506Y-104118720D01*
X153767347Y-104138283D01*
X153729615Y-104147283D01*
X153698335Y-104150230D01*
X153642385Y-104150965D01*
X153602555Y-104141660D01*
X153577708Y-104127846D01*
X153538656Y-104097467D01*
X153511625Y-104064613D01*
X153494517Y-104023294D01*
X153485238Y-103967521D01*
X153481693Y-103891305D01*
X153481410Y-103852622D01*
X153482372Y-103806247D01*
X153570007Y-103806247D01*
X153571023Y-103831126D01*
X153573556Y-103835200D01*
X153590274Y-103829665D01*
X153626249Y-103815017D01*
X153674331Y-103794190D01*
X153684386Y-103789714D01*
X153745152Y-103758814D01*
X153778632Y-103731657D01*
X153785990Y-103706220D01*
X153768391Y-103680481D01*
X153753856Y-103669109D01*
X153701410Y-103646364D01*
X153652322Y-103650122D01*
X153611227Y-103677884D01*
X153582758Y-103727152D01*
X153573631Y-103766257D01*
X153570007Y-103806247D01*
X153482372Y-103806247D01*
X153483285Y-103762249D01*
X153490196Y-103695384D01*
X153503884Y-103646695D01*
X153526096Y-103610849D01*
X153558574Y-103582513D01*
X153572733Y-103573355D01*
X153637053Y-103549507D01*
X153707473Y-103548006D01*
X153775595Y-103566966D01*
G37*
X153775595Y-103566966D02*
X153833021Y-103604497D01*
X153860719Y-103638096D01*
X153882662Y-103699064D01*
X153884405Y-103747308D01*
X153880457Y-103811816D01*
X153731686Y-103876934D01*
X153659349Y-103910202D01*
X153612084Y-103936964D01*
X153587507Y-103960144D01*
X153583237Y-103982667D01*
X153596889Y-104007455D01*
X153611943Y-104023886D01*
X153655746Y-104050235D01*
X153703389Y-104052081D01*
X153747145Y-104031546D01*
X153779289Y-103990752D01*
X153785038Y-103976347D01*
X153812576Y-103931356D01*
X153844258Y-103912182D01*
X153887714Y-103895779D01*
X153887714Y-103957966D01*
X153883872Y-104000283D01*
X153868823Y-104035969D01*
X153837280Y-104076943D01*
X153832592Y-104082267D01*
X153797506Y-104118720D01*
X153767347Y-104138283D01*
X153729615Y-104147283D01*
X153698335Y-104150230D01*
X153642385Y-104150965D01*
X153602555Y-104141660D01*
X153577708Y-104127846D01*
X153538656Y-104097467D01*
X153511625Y-104064613D01*
X153494517Y-104023294D01*
X153485238Y-103967521D01*
X153481693Y-103891305D01*
X153481410Y-103852622D01*
X153482372Y-103806247D01*
X153570007Y-103806247D01*
X153571023Y-103831126D01*
X153573556Y-103835200D01*
X153590274Y-103829665D01*
X153626249Y-103815017D01*
X153674331Y-103794190D01*
X153684386Y-103789714D01*
X153745152Y-103758814D01*
X153778632Y-103731657D01*
X153785990Y-103706220D01*
X153768391Y-103680481D01*
X153753856Y-103669109D01*
X153701410Y-103646364D01*
X153652322Y-103650122D01*
X153611227Y-103677884D01*
X153582758Y-103727152D01*
X153573631Y-103766257D01*
X153570007Y-103806247D01*
X153482372Y-103806247D01*
X153483285Y-103762249D01*
X153490196Y-103695384D01*
X153503884Y-103646695D01*
X153526096Y-103610849D01*
X153558574Y-103582513D01*
X153572733Y-103573355D01*
X153637053Y-103549507D01*
X153707473Y-103548006D01*
X153775595Y-103566966D01*
G36*
X150725910Y-98842348D02*
G01*
X150804454Y-98842778D01*
X150861298Y-98843942D01*
X150900105Y-98846207D01*
X150924538Y-98849940D01*
X150938262Y-98855506D01*
X150944940Y-98863273D01*
X150948236Y-98873605D01*
X150948556Y-98874943D01*
X150953562Y-98899079D01*
X150962829Y-98946701D01*
X150975392Y-99012741D01*
X150990287Y-99092128D01*
X151006551Y-99179796D01*
X151007119Y-99182875D01*
X151023410Y-99268789D01*
X151038652Y-99344696D01*
X151051861Y-99406045D01*
X151062054Y-99448282D01*
X151068248Y-99466855D01*
X151068543Y-99467184D01*
X151086788Y-99476253D01*
X151124405Y-99491367D01*
X151173271Y-99509262D01*
X151173543Y-99509358D01*
X151235093Y-99532493D01*
X151307657Y-99561965D01*
X151376057Y-99591597D01*
X151379294Y-99593062D01*
X151490702Y-99643626D01*
X151737399Y-99475160D01*
X151813077Y-99423803D01*
X151881631Y-99377889D01*
X151939088Y-99340030D01*
X151981476Y-99312837D01*
X152004825Y-99298921D01*
X152007042Y-99297889D01*
X152024010Y-99302484D01*
X152055701Y-99324655D01*
X152103352Y-99365447D01*
X152168198Y-99425905D01*
X152234397Y-99490227D01*
X152298214Y-99553612D01*
X152355329Y-99611451D01*
X152402305Y-99660175D01*
X152435703Y-99696210D01*
X152452085Y-99715984D01*
X152452694Y-99717002D01*
X152454505Y-99730572D01*
X152447683Y-99752733D01*
X152430540Y-99786478D01*
X152401393Y-99834800D01*
X152358555Y-99900692D01*
X152301448Y-99985517D01*
X152250766Y-100060177D01*
X152205461Y-100127140D01*
X152168150Y-100182516D01*
X152141452Y-100222420D01*
X152127985Y-100242962D01*
X152127137Y-100244356D01*
X152128781Y-100264038D01*
X152141245Y-100302293D01*
X152162048Y-100351889D01*
X152169462Y-100367728D01*
X152201814Y-100438290D01*
X152236328Y-100518353D01*
X152264365Y-100587629D01*
X152284568Y-100639045D01*
X152300615Y-100678119D01*
X152309888Y-100698541D01*
X152311041Y-100700114D01*
X152328096Y-100702721D01*
X152368298Y-100709863D01*
X152426302Y-100720523D01*
X152496763Y-100733685D01*
X152574335Y-100748333D01*
X152653672Y-100763449D01*
X152729431Y-100778018D01*
X152796264Y-100791022D01*
X152848828Y-100801445D01*
X152881776Y-100808270D01*
X152889857Y-100810199D01*
X152898205Y-100814962D01*
X152904506Y-100825718D01*
X152909045Y-100846098D01*
X152912104Y-100879734D01*
X152913967Y-100930255D01*
X152914918Y-101001292D01*
X152915240Y-101096476D01*
X152915257Y-101135492D01*
X152915257Y-101452799D01*
X152839057Y-101467839D01*
X152796663Y-101475995D01*
X152733400Y-101487899D01*
X152656962Y-101502116D01*
X152575043Y-101517210D01*
X152552400Y-101521355D01*
X152476806Y-101536053D01*
X152410953Y-101550505D01*
X152360366Y-101563375D01*
X152330574Y-101573322D01*
X152325612Y-101576287D01*
X152313426Y-101597283D01*
X152295953Y-101637967D01*
X152276577Y-101690322D01*
X152272734Y-101701600D01*
X152247339Y-101771523D01*
X152215817Y-101850418D01*
X152184969Y-101921266D01*
X152184817Y-101921595D01*
X152133447Y-102032733D01*
X152302399Y-102281253D01*
X152471352Y-102529772D01*
X152254429Y-102747058D01*
X152188819Y-102811726D01*
X152128979Y-102868733D01*
X152078267Y-102915033D01*
X152040046Y-102947584D01*
X152017675Y-102963343D01*
X152014466Y-102964343D01*
X151995626Y-102956469D01*
X151957180Y-102934578D01*
X151903330Y-102901267D01*
X151838276Y-102859131D01*
X151767940Y-102811943D01*
X151696555Y-102763810D01*
X151632908Y-102721928D01*
X151581041Y-102688871D01*
X151544995Y-102667218D01*
X151528867Y-102659543D01*
X151509189Y-102666037D01*
X151471875Y-102683150D01*
X151424621Y-102707326D01*
X151419612Y-102710013D01*
X151355977Y-102741927D01*
X151312341Y-102757579D01*
X151285202Y-102757745D01*
X151271057Y-102743204D01*
X151270975Y-102743000D01*
X151263905Y-102725779D01*
X151247042Y-102684899D01*
X151221695Y-102623525D01*
X151189171Y-102544819D01*
X151150778Y-102451947D01*
X151107822Y-102348072D01*
X151066222Y-102247502D01*
X151020504Y-102136516D01*
X150978526Y-102033703D01*
X150941548Y-101942215D01*
X150910827Y-101865201D01*
X150887622Y-101805815D01*
X150873190Y-101767209D01*
X150868743Y-101752800D01*
X150879896Y-101736272D01*
X150909069Y-101709930D01*
X150947971Y-101680887D01*
X151058757Y-101589039D01*
X151145351Y-101483759D01*
X151206716Y-101367266D01*
X151241815Y-101241776D01*
X151249608Y-101109507D01*
X151243943Y-101048457D01*
X151213078Y-100921795D01*
X151159920Y-100809941D01*
X151087767Y-100714001D01*
X150999917Y-100635076D01*
X150899665Y-100574270D01*
X150790310Y-100532687D01*
X150675147Y-100511428D01*
X150557475Y-100511599D01*
X150440590Y-100534301D01*
X150327789Y-100580638D01*
X150222369Y-100651713D01*
X150178368Y-100691911D01*
X150093979Y-100795129D01*
X150035222Y-100907925D01*
X150001704Y-101027010D01*
X149993035Y-101149095D01*
X150008823Y-101270893D01*
X150048678Y-101389116D01*
X150112207Y-101500475D01*
X150199021Y-101601684D01*
X150296029Y-101680887D01*
X150336437Y-101711162D01*
X150364982Y-101737219D01*
X150375257Y-101752825D01*
X150369877Y-101769843D01*
X150354575Y-101810500D01*
X150330612Y-101871642D01*
X150299244Y-101950119D01*
X150261732Y-102042780D01*
X150219333Y-102146472D01*
X150177663Y-102247526D01*
X150131690Y-102358607D01*
X150089107Y-102461541D01*
X150051221Y-102553165D01*
X150019340Y-102630316D01*
X149994771Y-102689831D01*
X149978820Y-102728544D01*
X149972910Y-102743000D01*
X149958948Y-102757685D01*
X149931940Y-102757642D01*
X149888413Y-102742099D01*
X149824890Y-102710284D01*
X149824388Y-102710013D01*
X149776560Y-102685323D01*
X149737897Y-102667338D01*
X149716095Y-102659614D01*
X149715133Y-102659543D01*
X149698721Y-102667378D01*
X149662487Y-102689165D01*
X149610474Y-102722328D01*
X149546725Y-102764291D01*
X149476060Y-102811943D01*
X149404116Y-102860191D01*
X149339274Y-102902151D01*
X149285735Y-102935227D01*
X149247697Y-102956821D01*
X149229533Y-102964343D01*
X149212808Y-102954457D01*
X149179180Y-102926826D01*
X149132010Y-102884495D01*
X149074658Y-102830505D01*
X149010484Y-102767899D01*
X148989497Y-102746983D01*
X148772499Y-102529623D01*
X148937668Y-102287220D01*
X148987864Y-102212781D01*
X149031919Y-102145972D01*
X149067362Y-102090665D01*
X149091719Y-102050729D01*
X149102522Y-102030036D01*
X149102838Y-102028563D01*
X149097143Y-102009058D01*
X149081826Y-101969822D01*
X149059537Y-101917430D01*
X149043893Y-101882355D01*
X149014641Y-101815201D01*
X148987094Y-101747358D01*
X148965737Y-101690034D01*
X148959935Y-101672572D01*
X148943452Y-101625938D01*
X148927340Y-101589905D01*
X148918490Y-101576287D01*
X148898960Y-101567952D01*
X148856334Y-101556137D01*
X148796145Y-101542181D01*
X148723922Y-101527422D01*
X148691600Y-101521355D01*
X148609522Y-101506273D01*
X148530795Y-101491669D01*
X148463109Y-101478980D01*
X148414160Y-101469642D01*
X148404943Y-101467839D01*
X148328743Y-101452799D01*
X148328743Y-101135492D01*
X148328914Y-101031154D01*
X148329616Y-100952213D01*
X148331134Y-100895038D01*
X148333749Y-100855999D01*
X148337746Y-100831465D01*
X148343409Y-100817805D01*
X148351020Y-100811389D01*
X148354143Y-100810199D01*
X148372978Y-100805980D01*
X148414588Y-100797562D01*
X148473630Y-100785961D01*
X148544757Y-100772195D01*
X148622625Y-100757280D01*
X148701887Y-100742232D01*
X148777198Y-100728069D01*
X148843213Y-100715806D01*
X148894587Y-100706461D01*
X148925975Y-100701050D01*
X148932959Y-100700114D01*
X148939285Y-100687596D01*
X148953290Y-100654246D01*
X148972355Y-100606377D01*
X148979634Y-100587629D01*
X149008996Y-100515195D01*
X149043571Y-100435170D01*
X149074537Y-100367728D01*
X149097323Y-100316159D01*
X149112482Y-100273785D01*
X149117542Y-100247834D01*
X149116736Y-100244356D01*
X149106041Y-100227936D01*
X149081620Y-100191417D01*
X149046095Y-100138687D01*
X149002087Y-100073635D01*
X148952217Y-100000151D01*
X148942356Y-99985645D01*
X148884492Y-99899704D01*
X148841956Y-99834261D01*
X148813054Y-99786304D01*
X148796090Y-99752820D01*
X148789367Y-99730795D01*
X148791190Y-99717217D01*
X148791236Y-99717131D01*
X148805586Y-99699297D01*
X148837323Y-99664817D01*
X148883010Y-99617268D01*
X148939204Y-99560222D01*
X149002468Y-99497255D01*
X149009602Y-99490227D01*
X149089330Y-99413020D01*
X149150857Y-99356330D01*
X149195421Y-99319110D01*
X149224257Y-99300315D01*
X149236958Y-99297889D01*
X149255494Y-99308471D01*
X149293961Y-99332916D01*
X149348386Y-99368612D01*
X149414798Y-99412947D01*
X149489225Y-99463311D01*
X149506601Y-99475160D01*
X149753297Y-99643626D01*
X149864706Y-99593062D01*
X149932457Y-99563595D01*
X150005183Y-99533959D01*
X150067703Y-99510330D01*
X150070457Y-99509358D01*
X150119360Y-99491457D01*
X150157057Y-99476320D01*
X150175425Y-99467210D01*
X150175456Y-99467184D01*
X150181285Y-99450717D01*
X150191192Y-99410219D01*
X150204195Y-99350242D01*
X150219309Y-99275340D01*
X150235552Y-99190064D01*
X150236881Y-99182875D01*
X150253175Y-99095014D01*
X150268133Y-99015260D01*
X150280791Y-98948681D01*
X150290186Y-98900347D01*
X150295354Y-98875325D01*
X150295444Y-98874943D01*
X150298589Y-98864299D01*
X150304704Y-98856262D01*
X150317453Y-98850467D01*
X150340500Y-98846547D01*
X150377509Y-98844135D01*
X150432144Y-98842865D01*
X150508067Y-98842371D01*
X150608944Y-98842286D01*
X150622000Y-98842286D01*
X150725910Y-98842348D01*
G37*
X150725910Y-98842348D02*
X150804454Y-98842778D01*
X150861298Y-98843942D01*
X150900105Y-98846207D01*
X150924538Y-98849940D01*
X150938262Y-98855506D01*
X150944940Y-98863273D01*
X150948236Y-98873605D01*
X150948556Y-98874943D01*
X150953562Y-98899079D01*
X150962829Y-98946701D01*
X150975392Y-99012741D01*
X150990287Y-99092128D01*
X151006551Y-99179796D01*
X151007119Y-99182875D01*
X151023410Y-99268789D01*
X151038652Y-99344696D01*
X151051861Y-99406045D01*
X151062054Y-99448282D01*
X151068248Y-99466855D01*
X151068543Y-99467184D01*
X151086788Y-99476253D01*
X151124405Y-99491367D01*
X151173271Y-99509262D01*
X151173543Y-99509358D01*
X151235093Y-99532493D01*
X151307657Y-99561965D01*
X151376057Y-99591597D01*
X151379294Y-99593062D01*
X151490702Y-99643626D01*
X151737399Y-99475160D01*
X151813077Y-99423803D01*
X151881631Y-99377889D01*
X151939088Y-99340030D01*
X151981476Y-99312837D01*
X152004825Y-99298921D01*
X152007042Y-99297889D01*
X152024010Y-99302484D01*
X152055701Y-99324655D01*
X152103352Y-99365447D01*
X152168198Y-99425905D01*
X152234397Y-99490227D01*
X152298214Y-99553612D01*
X152355329Y-99611451D01*
X152402305Y-99660175D01*
X152435703Y-99696210D01*
X152452085Y-99715984D01*
X152452694Y-99717002D01*
X152454505Y-99730572D01*
X152447683Y-99752733D01*
X152430540Y-99786478D01*
X152401393Y-99834800D01*
X152358555Y-99900692D01*
X152301448Y-99985517D01*
X152250766Y-100060177D01*
X152205461Y-100127140D01*
X152168150Y-100182516D01*
X152141452Y-100222420D01*
X152127985Y-100242962D01*
X152127137Y-100244356D01*
X152128781Y-100264038D01*
X152141245Y-100302293D01*
X152162048Y-100351889D01*
X152169462Y-100367728D01*
X152201814Y-100438290D01*
X152236328Y-100518353D01*
X152264365Y-100587629D01*
X152284568Y-100639045D01*
X152300615Y-100678119D01*
X152309888Y-100698541D01*
X152311041Y-100700114D01*
X152328096Y-100702721D01*
X152368298Y-100709863D01*
X152426302Y-100720523D01*
X152496763Y-100733685D01*
X152574335Y-100748333D01*
X152653672Y-100763449D01*
X152729431Y-100778018D01*
X152796264Y-100791022D01*
X152848828Y-100801445D01*
X152881776Y-100808270D01*
X152889857Y-100810199D01*
X152898205Y-100814962D01*
X152904506Y-100825718D01*
X152909045Y-100846098D01*
X152912104Y-100879734D01*
X152913967Y-100930255D01*
X152914918Y-101001292D01*
X152915240Y-101096476D01*
X152915257Y-101135492D01*
X152915257Y-101452799D01*
X152839057Y-101467839D01*
X152796663Y-101475995D01*
X152733400Y-101487899D01*
X152656962Y-101502116D01*
X152575043Y-101517210D01*
X152552400Y-101521355D01*
X152476806Y-101536053D01*
X152410953Y-101550505D01*
X152360366Y-101563375D01*
X152330574Y-101573322D01*
X152325612Y-101576287D01*
X152313426Y-101597283D01*
X152295953Y-101637967D01*
X152276577Y-101690322D01*
X152272734Y-101701600D01*
X152247339Y-101771523D01*
X152215817Y-101850418D01*
X152184969Y-101921266D01*
X152184817Y-101921595D01*
X152133447Y-102032733D01*
X152302399Y-102281253D01*
X152471352Y-102529772D01*
X152254429Y-102747058D01*
X152188819Y-102811726D01*
X152128979Y-102868733D01*
X152078267Y-102915033D01*
X152040046Y-102947584D01*
X152017675Y-102963343D01*
X152014466Y-102964343D01*
X151995626Y-102956469D01*
X151957180Y-102934578D01*
X151903330Y-102901267D01*
X151838276Y-102859131D01*
X151767940Y-102811943D01*
X151696555Y-102763810D01*
X151632908Y-102721928D01*
X151581041Y-102688871D01*
X151544995Y-102667218D01*
X151528867Y-102659543D01*
X151509189Y-102666037D01*
X151471875Y-102683150D01*
X151424621Y-102707326D01*
X151419612Y-102710013D01*
X151355977Y-102741927D01*
X151312341Y-102757579D01*
X151285202Y-102757745D01*
X151271057Y-102743204D01*
X151270975Y-102743000D01*
X151263905Y-102725779D01*
X151247042Y-102684899D01*
X151221695Y-102623525D01*
X151189171Y-102544819D01*
X151150778Y-102451947D01*
X151107822Y-102348072D01*
X151066222Y-102247502D01*
X151020504Y-102136516D01*
X150978526Y-102033703D01*
X150941548Y-101942215D01*
X150910827Y-101865201D01*
X150887622Y-101805815D01*
X150873190Y-101767209D01*
X150868743Y-101752800D01*
X150879896Y-101736272D01*
X150909069Y-101709930D01*
X150947971Y-101680887D01*
X151058757Y-101589039D01*
X151145351Y-101483759D01*
X151206716Y-101367266D01*
X151241815Y-101241776D01*
X151249608Y-101109507D01*
X151243943Y-101048457D01*
X151213078Y-100921795D01*
X151159920Y-100809941D01*
X151087767Y-100714001D01*
X150999917Y-100635076D01*
X150899665Y-100574270D01*
X150790310Y-100532687D01*
X150675147Y-100511428D01*
X150557475Y-100511599D01*
X150440590Y-100534301D01*
X150327789Y-100580638D01*
X150222369Y-100651713D01*
X150178368Y-100691911D01*
X150093979Y-100795129D01*
X150035222Y-100907925D01*
X150001704Y-101027010D01*
X149993035Y-101149095D01*
X150008823Y-101270893D01*
X150048678Y-101389116D01*
X150112207Y-101500475D01*
X150199021Y-101601684D01*
X150296029Y-101680887D01*
X150336437Y-101711162D01*
X150364982Y-101737219D01*
X150375257Y-101752825D01*
X150369877Y-101769843D01*
X150354575Y-101810500D01*
X150330612Y-101871642D01*
X150299244Y-101950119D01*
X150261732Y-102042780D01*
X150219333Y-102146472D01*
X150177663Y-102247526D01*
X150131690Y-102358607D01*
X150089107Y-102461541D01*
X150051221Y-102553165D01*
X150019340Y-102630316D01*
X149994771Y-102689831D01*
X149978820Y-102728544D01*
X149972910Y-102743000D01*
X149958948Y-102757685D01*
X149931940Y-102757642D01*
X149888413Y-102742099D01*
X149824890Y-102710284D01*
X149824388Y-102710013D01*
X149776560Y-102685323D01*
X149737897Y-102667338D01*
X149716095Y-102659614D01*
X149715133Y-102659543D01*
X149698721Y-102667378D01*
X149662487Y-102689165D01*
X149610474Y-102722328D01*
X149546725Y-102764291D01*
X149476060Y-102811943D01*
X149404116Y-102860191D01*
X149339274Y-102902151D01*
X149285735Y-102935227D01*
X149247697Y-102956821D01*
X149229533Y-102964343D01*
X149212808Y-102954457D01*
X149179180Y-102926826D01*
X149132010Y-102884495D01*
X149074658Y-102830505D01*
X149010484Y-102767899D01*
X148989497Y-102746983D01*
X148772499Y-102529623D01*
X148937668Y-102287220D01*
X148987864Y-102212781D01*
X149031919Y-102145972D01*
X149067362Y-102090665D01*
X149091719Y-102050729D01*
X149102522Y-102030036D01*
X149102838Y-102028563D01*
X149097143Y-102009058D01*
X149081826Y-101969822D01*
X149059537Y-101917430D01*
X149043893Y-101882355D01*
X149014641Y-101815201D01*
X148987094Y-101747358D01*
X148965737Y-101690034D01*
X148959935Y-101672572D01*
X148943452Y-101625938D01*
X148927340Y-101589905D01*
X148918490Y-101576287D01*
X148898960Y-101567952D01*
X148856334Y-101556137D01*
X148796145Y-101542181D01*
X148723922Y-101527422D01*
X148691600Y-101521355D01*
X148609522Y-101506273D01*
X148530795Y-101491669D01*
X148463109Y-101478980D01*
X148414160Y-101469642D01*
X148404943Y-101467839D01*
X148328743Y-101452799D01*
X148328743Y-101135492D01*
X148328914Y-101031154D01*
X148329616Y-100952213D01*
X148331134Y-100895038D01*
X148333749Y-100855999D01*
X148337746Y-100831465D01*
X148343409Y-100817805D01*
X148351020Y-100811389D01*
X148354143Y-100810199D01*
X148372978Y-100805980D01*
X148414588Y-100797562D01*
X148473630Y-100785961D01*
X148544757Y-100772195D01*
X148622625Y-100757280D01*
X148701887Y-100742232D01*
X148777198Y-100728069D01*
X148843213Y-100715806D01*
X148894587Y-100706461D01*
X148925975Y-100701050D01*
X148932959Y-100700114D01*
X148939285Y-100687596D01*
X148953290Y-100654246D01*
X148972355Y-100606377D01*
X148979634Y-100587629D01*
X149008996Y-100515195D01*
X149043571Y-100435170D01*
X149074537Y-100367728D01*
X149097323Y-100316159D01*
X149112482Y-100273785D01*
X149117542Y-100247834D01*
X149116736Y-100244356D01*
X149106041Y-100227936D01*
X149081620Y-100191417D01*
X149046095Y-100138687D01*
X149002087Y-100073635D01*
X148952217Y-100000151D01*
X148942356Y-99985645D01*
X148884492Y-99899704D01*
X148841956Y-99834261D01*
X148813054Y-99786304D01*
X148796090Y-99752820D01*
X148789367Y-99730795D01*
X148791190Y-99717217D01*
X148791236Y-99717131D01*
X148805586Y-99699297D01*
X148837323Y-99664817D01*
X148883010Y-99617268D01*
X148939204Y-99560222D01*
X149002468Y-99497255D01*
X149009602Y-99490227D01*
X149089330Y-99413020D01*
X149150857Y-99356330D01*
X149195421Y-99319110D01*
X149224257Y-99300315D01*
X149236958Y-99297889D01*
X149255494Y-99308471D01*
X149293961Y-99332916D01*
X149348386Y-99368612D01*
X149414798Y-99412947D01*
X149489225Y-99463311D01*
X149506601Y-99475160D01*
X149753297Y-99643626D01*
X149864706Y-99593062D01*
X149932457Y-99563595D01*
X150005183Y-99533959D01*
X150067703Y-99510330D01*
X150070457Y-99509358D01*
X150119360Y-99491457D01*
X150157057Y-99476320D01*
X150175425Y-99467210D01*
X150175456Y-99467184D01*
X150181285Y-99450717D01*
X150191192Y-99410219D01*
X150204195Y-99350242D01*
X150219309Y-99275340D01*
X150235552Y-99190064D01*
X150236881Y-99182875D01*
X150253175Y-99095014D01*
X150268133Y-99015260D01*
X150280791Y-98948681D01*
X150290186Y-98900347D01*
X150295354Y-98875325D01*
X150295444Y-98874943D01*
X150298589Y-98864299D01*
X150304704Y-98856262D01*
X150317453Y-98850467D01*
X150340500Y-98846547D01*
X150377509Y-98844135D01*
X150432144Y-98842865D01*
X150508067Y-98842371D01*
X150608944Y-98842286D01*
X150622000Y-98842286D01*
X150725910Y-98842348D01*
D12*
X138331000Y-105763000D02*
X139505000Y-105763000D01*
X138331000Y-104041000D02*
X139505000Y-104041000D01*
X144625000Y-105763000D02*
X143451000Y-105763000D01*
X144625000Y-104041000D02*
X143451000Y-104041000D01*
X126673000Y-118604000D02*
X131058000Y-118604000D01*
X131058000Y-118604000D02*
X131058000Y-115584000D01*
X131058000Y-115584000D02*
X126673000Y-115584000D01*
X121680000Y-109786000D02*
X121680000Y-114171000D01*
X124700000Y-109786000D02*
X121680000Y-109786000D01*
X124700000Y-114171000D02*
X124700000Y-109786000D01*
X156315665Y-119696608D02*
G75*
G03X159548000Y-119853516I1672335J1078608D01*
G01*
X156315665Y-117539392D02*
G75*
G02X159548000Y-117382484I1672335J-1078608D01*
G01*
X156946870Y-119697837D02*
G75*
G03X159028961Y-119698000I1041130J1079837D01*
G01*
X156946870Y-117538163D02*
G75*
G02X159028961Y-117538000I1041130J-1079837D01*
G01*
X159548000Y-119854000D02*
X159548000Y-119698000D01*
X159548000Y-117538000D02*
X159548000Y-117382000D01*
X159548000Y-111696000D02*
X159548000Y-111540000D01*
X159548000Y-114012000D02*
X159548000Y-113856000D01*
X156946870Y-111696163D02*
G75*
G02X159028961Y-111696000I1041130J-1079837D01*
G01*
X156946870Y-113855837D02*
G75*
G03X159028961Y-113856000I1041130J1079837D01*
G01*
X156315665Y-111697392D02*
G75*
G02X159548000Y-111540484I1672335J-1078608D01*
G01*
X156315665Y-113854608D02*
G75*
G03X159548000Y-114011516I1672335J1078608D01*
G01*
X156315665Y-108012608D02*
G75*
G03X159548000Y-108169516I1672335J1078608D01*
G01*
X156315665Y-105855392D02*
G75*
G02X159548000Y-105698484I1672335J-1078608D01*
G01*
X156946870Y-108013837D02*
G75*
G03X159028961Y-108014000I1041130J1079837D01*
G01*
X156946870Y-105854163D02*
G75*
G02X159028961Y-105854000I1041130J-1079837D01*
G01*
X159548000Y-108170000D02*
X159548000Y-108014000D01*
X159548000Y-105854000D02*
X159548000Y-105698000D01*
X133868000Y-125132000D02*
X133868000Y-119182000D01*
X133868000Y-119182000D02*
X126268000Y-119182000D01*
X126268000Y-119182000D02*
X126268000Y-125132000D01*
X126268000Y-125132000D02*
X133868000Y-125132000D01*
X130568000Y-125132000D02*
X130568000Y-124382000D01*
X130568000Y-124382000D02*
X129568000Y-124382000D01*
X129568000Y-124382000D02*
X129568000Y-125132000D01*
X129568000Y-125132000D02*
X130568000Y-125132000D01*
X133868000Y-125132000D02*
X133868000Y-124382000D01*
X133868000Y-124382000D02*
X132068000Y-124382000D01*
X132068000Y-124382000D02*
X132068000Y-125132000D01*
X132068000Y-125132000D02*
X133868000Y-125132000D01*
X128068000Y-125132000D02*
X128068000Y-124382000D01*
X128068000Y-124382000D02*
X126268000Y-124382000D01*
X126268000Y-124382000D02*
X126268000Y-125132000D01*
X126268000Y-125132000D02*
X128068000Y-125132000D01*
X133868000Y-122882000D02*
X133118000Y-122882000D01*
X133118000Y-122882000D02*
X133118000Y-119932000D01*
X133118000Y-119932000D02*
X130068000Y-119932000D01*
X126268000Y-122882000D02*
X127018000Y-122882000D01*
X127018000Y-122882000D02*
X127018000Y-119932000D01*
X127018000Y-119932000D02*
X130068000Y-119932000D01*
X131668000Y-125432000D02*
X134168000Y-125432000D01*
X134168000Y-125432000D02*
X134168000Y-122932000D01*
X126222000Y-99358000D02*
X126222000Y-101858000D01*
X128722000Y-99358000D02*
X126222000Y-99358000D01*
X133372000Y-104858000D02*
X130322000Y-104858000D01*
X133372000Y-101908000D02*
X133372000Y-104858000D01*
X134122000Y-101908000D02*
X133372000Y-101908000D01*
X127272000Y-104858000D02*
X130322000Y-104858000D01*
X127272000Y-101908000D02*
X127272000Y-104858000D01*
X126522000Y-101908000D02*
X127272000Y-101908000D01*
X134122000Y-99658000D02*
X132322000Y-99658000D01*
X134122000Y-100408000D02*
X134122000Y-99658000D01*
X132322000Y-100408000D02*
X134122000Y-100408000D01*
X132322000Y-99658000D02*
X132322000Y-100408000D01*
X128322000Y-99658000D02*
X126522000Y-99658000D01*
X128322000Y-100408000D02*
X128322000Y-99658000D01*
X126522000Y-100408000D02*
X128322000Y-100408000D01*
X126522000Y-99658000D02*
X126522000Y-100408000D01*
X130822000Y-99658000D02*
X129822000Y-99658000D01*
X130822000Y-100408000D02*
X130822000Y-99658000D01*
X129822000Y-100408000D02*
X130822000Y-100408000D01*
X129822000Y-99658000D02*
X129822000Y-100408000D01*
X134122000Y-99658000D02*
X126522000Y-99658000D01*
X134122000Y-105608000D02*
X134122000Y-99658000D01*
X126522000Y-105608000D02*
X134122000Y-105608000D01*
X126522000Y-99658000D02*
X126522000Y-105608000D01*
X137608000Y-117542000D02*
X137608000Y-122742000D01*
X142748000Y-117542000D02*
X137608000Y-117542000D01*
X145348000Y-122742000D02*
X137608000Y-122742000D01*
X142748000Y-117542000D02*
X142748000Y-120142000D01*
X142748000Y-120142000D02*
X145348000Y-120142000D01*
X145348000Y-120142000D02*
X145348000Y-122742000D01*
X144018000Y-117542000D02*
X145348000Y-117542000D01*
X145348000Y-117542000D02*
X145348000Y-118872000D01*
X131934000Y-108834000D02*
X130674000Y-108834000D01*
X125114000Y-108834000D02*
X126374000Y-108834000D01*
X131934000Y-112594000D02*
X131934000Y-108834000D01*
X125114000Y-114844000D02*
X125114000Y-108834000D01*
X142478000Y-106366000D02*
G75*
G02X140478000Y-106366000I-1000000J0D01*
G01*
X140478000Y-106366000D02*
X138828000Y-106366000D01*
X138828000Y-106366000D02*
X138828000Y-116646000D01*
X138828000Y-116646000D02*
X144128000Y-116646000D01*
X144128000Y-116646000D02*
X144128000Y-106366000D01*
X144128000Y-106366000D02*
X142478000Y-106366000D01*
X135989000Y-110899000D02*
X135989000Y-112073000D01*
X134267000Y-110899000D02*
X134267000Y-112073000D01*
X143084000Y-103476000D02*
X139364000Y-103476000D01*
X143084000Y-101756000D02*
X139364000Y-101756000D01*
X153752000Y-119478000D02*
X150032000Y-119478000D01*
X153752000Y-117758000D02*
X150032000Y-117758000D01*
X153752000Y-111916000D02*
X150032000Y-111916000D01*
X153752000Y-113636000D02*
X150032000Y-113636000D01*
X153752000Y-107794000D02*
X150032000Y-107794000D01*
X153752000Y-106074000D02*
X150032000Y-106074000D01*
D10*
X159004095Y-121458380D02*
X159004095Y-120458380D01*
X159004095Y-120934571D02*
X159575523Y-120934571D01*
X159575523Y-121458380D02*
X159575523Y-120458380D01*
X160480285Y-120791714D02*
X160480285Y-121458380D01*
X160242190Y-120410761D02*
X160004095Y-121125047D01*
X160623142Y-121125047D01*
X121666095Y-121458380D02*
X121666095Y-120458380D01*
X121666095Y-120934571D02*
X122237523Y-120934571D01*
X122237523Y-121458380D02*
X122237523Y-120458380D01*
X122618476Y-120458380D02*
X123237523Y-120458380D01*
X122904190Y-120839333D01*
X123047047Y-120839333D01*
X123142285Y-120886952D01*
X123189904Y-120934571D01*
X123237523Y-121029809D01*
X123237523Y-121267904D01*
X123189904Y-121363142D01*
X123142285Y-121410761D01*
X123047047Y-121458380D01*
X122761333Y-121458380D01*
X122666095Y-121410761D01*
X122618476Y-121363142D01*
X159004095Y-97582380D02*
X159004095Y-96582380D01*
X159004095Y-97058571D02*
X159575523Y-97058571D01*
X159575523Y-97582380D02*
X159575523Y-96582380D01*
X160004095Y-96677619D02*
X160051714Y-96630000D01*
X160146952Y-96582380D01*
X160385047Y-96582380D01*
X160480285Y-96630000D01*
X160527904Y-96677619D01*
X160575523Y-96772857D01*
X160575523Y-96868095D01*
X160527904Y-97010952D01*
X159956476Y-97582380D01*
X160575523Y-97582380D01*
X121666095Y-97582380D02*
X121666095Y-96582380D01*
X121666095Y-97058571D02*
X122237523Y-97058571D01*
X122237523Y-97582380D02*
X122237523Y-96582380D01*
X123237523Y-97582380D02*
X122666095Y-97582380D01*
X122951809Y-97582380D02*
X122951809Y-96582380D01*
X122856571Y-96725238D01*
X122761333Y-96820476D01*
X122666095Y-96868095D01*
X136739333Y-103481142D02*
X136691714Y-103528761D01*
X136548857Y-103576380D01*
X136453619Y-103576380D01*
X136310761Y-103528761D01*
X136215523Y-103433523D01*
X136167904Y-103338285D01*
X136120285Y-103147809D01*
X136120285Y-103004952D01*
X136167904Y-102814476D01*
X136215523Y-102719238D01*
X136310761Y-102624000D01*
X136453619Y-102576380D01*
X136548857Y-102576380D01*
X136691714Y-102624000D01*
X136739333Y-102671619D01*
X137691714Y-103576380D02*
X137120285Y-103576380D01*
X137406000Y-103576380D02*
X137406000Y-102576380D01*
X137310761Y-102719238D01*
X137215523Y-102814476D01*
X137120285Y-102862095D01*
X145375333Y-103481142D02*
X145327714Y-103528761D01*
X145184857Y-103576380D01*
X145089619Y-103576380D01*
X144946761Y-103528761D01*
X144851523Y-103433523D01*
X144803904Y-103338285D01*
X144756285Y-103147809D01*
X144756285Y-103004952D01*
X144803904Y-102814476D01*
X144851523Y-102719238D01*
X144946761Y-102624000D01*
X145089619Y-102576380D01*
X145184857Y-102576380D01*
X145327714Y-102624000D01*
X145375333Y-102671619D01*
X145756285Y-102671619D02*
X145803904Y-102624000D01*
X145899142Y-102576380D01*
X146137238Y-102576380D01*
X146232476Y-102624000D01*
X146280095Y-102671619D01*
X146327714Y-102766857D01*
X146327714Y-102862095D01*
X146280095Y-103004952D01*
X145708666Y-103576380D01*
X146327714Y-103576380D01*
X131913333Y-116435142D02*
X131865714Y-116482761D01*
X131722857Y-116530380D01*
X131627619Y-116530380D01*
X131484761Y-116482761D01*
X131389523Y-116387523D01*
X131341904Y-116292285D01*
X131294285Y-116101809D01*
X131294285Y-115958952D01*
X131341904Y-115768476D01*
X131389523Y-115673238D01*
X131484761Y-115578000D01*
X131627619Y-115530380D01*
X131722857Y-115530380D01*
X131865714Y-115578000D01*
X131913333Y-115625619D01*
X132246666Y-115530380D02*
X132865714Y-115530380D01*
X132532380Y-115911333D01*
X132675238Y-115911333D01*
X132770476Y-115958952D01*
X132818095Y-116006571D01*
X132865714Y-116101809D01*
X132865714Y-116339904D01*
X132818095Y-116435142D01*
X132770476Y-116482761D01*
X132675238Y-116530380D01*
X132389523Y-116530380D01*
X132294285Y-116482761D01*
X132246666Y-116435142D01*
X121261142Y-112587666D02*
X121308761Y-112635285D01*
X121356380Y-112778142D01*
X121356380Y-112873380D01*
X121308761Y-113016238D01*
X121213523Y-113111476D01*
X121118285Y-113159095D01*
X120927809Y-113206714D01*
X120784952Y-113206714D01*
X120594476Y-113159095D01*
X120499238Y-113111476D01*
X120404000Y-113016238D01*
X120356380Y-112873380D01*
X120356380Y-112778142D01*
X120404000Y-112635285D01*
X120451619Y-112587666D01*
X120689714Y-111730523D02*
X121356380Y-111730523D01*
X120308761Y-111968619D02*
X121023047Y-112206714D01*
X121023047Y-111587666D01*
X157249904Y-122030380D02*
X157249904Y-121030380D01*
X157488000Y-121030380D01*
X157630857Y-121078000D01*
X157726095Y-121173238D01*
X157773714Y-121268476D01*
X157821333Y-121458952D01*
X157821333Y-121601809D01*
X157773714Y-121792285D01*
X157726095Y-121887523D01*
X157630857Y-121982761D01*
X157488000Y-122030380D01*
X157249904Y-122030380D01*
X158773714Y-122030380D02*
X158202285Y-122030380D01*
X158488000Y-122030380D02*
X158488000Y-121030380D01*
X158392761Y-121173238D01*
X158297523Y-121268476D01*
X158202285Y-121316095D01*
X157249904Y-116188380D02*
X157249904Y-115188380D01*
X157488000Y-115188380D01*
X157630857Y-115236000D01*
X157726095Y-115331238D01*
X157773714Y-115426476D01*
X157821333Y-115616952D01*
X157821333Y-115759809D01*
X157773714Y-115950285D01*
X157726095Y-116045523D01*
X157630857Y-116140761D01*
X157488000Y-116188380D01*
X157249904Y-116188380D01*
X158202285Y-115283619D02*
X158249904Y-115236000D01*
X158345142Y-115188380D01*
X158583238Y-115188380D01*
X158678476Y-115236000D01*
X158726095Y-115283619D01*
X158773714Y-115378857D01*
X158773714Y-115474095D01*
X158726095Y-115616952D01*
X158154666Y-116188380D01*
X158773714Y-116188380D01*
X157249904Y-110346380D02*
X157249904Y-109346380D01*
X157488000Y-109346380D01*
X157630857Y-109394000D01*
X157726095Y-109489238D01*
X157773714Y-109584476D01*
X157821333Y-109774952D01*
X157821333Y-109917809D01*
X157773714Y-110108285D01*
X157726095Y-110203523D01*
X157630857Y-110298761D01*
X157488000Y-110346380D01*
X157249904Y-110346380D01*
X158154666Y-109346380D02*
X158773714Y-109346380D01*
X158440380Y-109727333D01*
X158583238Y-109727333D01*
X158678476Y-109774952D01*
X158726095Y-109822571D01*
X158773714Y-109917809D01*
X158773714Y-110155904D01*
X158726095Y-110251142D01*
X158678476Y-110298761D01*
X158583238Y-110346380D01*
X158297523Y-110346380D01*
X158202285Y-110298761D01*
X158154666Y-110251142D01*
X134919667Y-120137381D02*
X134919667Y-120851667D01*
X134872048Y-120994524D01*
X134776810Y-121089762D01*
X134633953Y-121137381D01*
X134538715Y-121137381D01*
X135919667Y-121137381D02*
X135348239Y-121137381D01*
X135633953Y-121137381D02*
X135633953Y-120137381D01*
X135538715Y-120280239D01*
X135443477Y-120375477D01*
X135348239Y-120423096D01*
X129988666Y-98060380D02*
X129988666Y-98774666D01*
X129941047Y-98917523D01*
X129845809Y-99012761D01*
X129702952Y-99060380D01*
X129607714Y-99060380D01*
X130417238Y-98155619D02*
X130464857Y-98108000D01*
X130560095Y-98060380D01*
X130798190Y-98060380D01*
X130893428Y-98108000D01*
X130941047Y-98155619D01*
X130988666Y-98250857D01*
X130988666Y-98346095D01*
X130941047Y-98488952D01*
X130369619Y-99060380D01*
X130988666Y-99060380D01*
X145800380Y-120475333D02*
X146514666Y-120475333D01*
X146657523Y-120522952D01*
X146752761Y-120618190D01*
X146800380Y-120761047D01*
X146800380Y-120856285D01*
X145800380Y-120094380D02*
X145800380Y-119475333D01*
X146181333Y-119808666D01*
X146181333Y-119665809D01*
X146228952Y-119570571D01*
X146276571Y-119522952D01*
X146371809Y-119475333D01*
X146609904Y-119475333D01*
X146705142Y-119522952D01*
X146752761Y-119570571D01*
X146800380Y-119665809D01*
X146800380Y-119951523D01*
X146752761Y-120046761D01*
X146705142Y-120094380D01*
X125182380Y-108203904D02*
X125991904Y-108203904D01*
X126087142Y-108156285D01*
X126134761Y-108108666D01*
X126182380Y-108013428D01*
X126182380Y-107822952D01*
X126134761Y-107727714D01*
X126087142Y-107680095D01*
X125991904Y-107632476D01*
X125182380Y-107632476D01*
X126182380Y-106632476D02*
X126182380Y-107203904D01*
X126182380Y-106918190D02*
X125182380Y-106918190D01*
X125325238Y-107013428D01*
X125420476Y-107108666D01*
X125468095Y-107203904D01*
X140716095Y-107910380D02*
X140716095Y-108719904D01*
X140763714Y-108815142D01*
X140811333Y-108862761D01*
X140906571Y-108910380D01*
X141097047Y-108910380D01*
X141192285Y-108862761D01*
X141239904Y-108815142D01*
X141287523Y-108719904D01*
X141287523Y-107910380D01*
X141716095Y-108005619D02*
X141763714Y-107958000D01*
X141858952Y-107910380D01*
X142097047Y-107910380D01*
X142192285Y-107958000D01*
X142239904Y-108005619D01*
X142287523Y-108100857D01*
X142287523Y-108196095D01*
X142239904Y-108338952D01*
X141668476Y-108910380D01*
X142287523Y-108910380D01*
X135485142Y-108116666D02*
X135532761Y-108164285D01*
X135580380Y-108307142D01*
X135580380Y-108402380D01*
X135532761Y-108545238D01*
X135437523Y-108640476D01*
X135342285Y-108688095D01*
X135151809Y-108735714D01*
X135008952Y-108735714D01*
X134818476Y-108688095D01*
X134723238Y-108640476D01*
X134628000Y-108545238D01*
X134580380Y-108402380D01*
X134580380Y-108307142D01*
X134628000Y-108164285D01*
X134675619Y-108116666D01*
X134580380Y-107211904D02*
X134580380Y-107688095D01*
X135056571Y-107735714D01*
X135008952Y-107688095D01*
X134961333Y-107592857D01*
X134961333Y-107354761D01*
X135008952Y-107259523D01*
X135056571Y-107211904D01*
X135151809Y-107164285D01*
X135389904Y-107164285D01*
X135485142Y-107211904D01*
X135532761Y-107259523D01*
X135580380Y-107354761D01*
X135580380Y-107592857D01*
X135532761Y-107688095D01*
X135485142Y-107735714D01*
X143089333Y-101290380D02*
X142756000Y-100814190D01*
X142517904Y-101290380D02*
X142517904Y-100290380D01*
X142898857Y-100290380D01*
X142994095Y-100338000D01*
X143041714Y-100385619D01*
X143089333Y-100480857D01*
X143089333Y-100623714D01*
X143041714Y-100718952D01*
X142994095Y-100766571D01*
X142898857Y-100814190D01*
X142517904Y-100814190D01*
X144041714Y-101290380D02*
X143470285Y-101290380D01*
X143756000Y-101290380D02*
X143756000Y-100290380D01*
X143660761Y-100433238D01*
X143565523Y-100528476D01*
X143470285Y-100576095D01*
X151725333Y-120930380D02*
X151392000Y-120454190D01*
X151153904Y-120930380D02*
X151153904Y-119930380D01*
X151534857Y-119930380D01*
X151630095Y-119978000D01*
X151677714Y-120025619D01*
X151725333Y-120120857D01*
X151725333Y-120263714D01*
X151677714Y-120358952D01*
X151630095Y-120406571D01*
X151534857Y-120454190D01*
X151153904Y-120454190D01*
X152106285Y-120025619D02*
X152153904Y-119978000D01*
X152249142Y-119930380D01*
X152487238Y-119930380D01*
X152582476Y-119978000D01*
X152630095Y-120025619D01*
X152677714Y-120120857D01*
X152677714Y-120216095D01*
X152630095Y-120358952D01*
X152058666Y-120930380D01*
X152677714Y-120930380D01*
X151725333Y-115088380D02*
X151392000Y-114612190D01*
X151153904Y-115088380D02*
X151153904Y-114088380D01*
X151534857Y-114088380D01*
X151630095Y-114136000D01*
X151677714Y-114183619D01*
X151725333Y-114278857D01*
X151725333Y-114421714D01*
X151677714Y-114516952D01*
X151630095Y-114564571D01*
X151534857Y-114612190D01*
X151153904Y-114612190D01*
X152058666Y-114088380D02*
X152677714Y-114088380D01*
X152344380Y-114469333D01*
X152487238Y-114469333D01*
X152582476Y-114516952D01*
X152630095Y-114564571D01*
X152677714Y-114659809D01*
X152677714Y-114897904D01*
X152630095Y-114993142D01*
X152582476Y-115040761D01*
X152487238Y-115088380D01*
X152201523Y-115088380D01*
X152106285Y-115040761D01*
X152058666Y-114993142D01*
X151725333Y-109246380D02*
X151392000Y-108770190D01*
X151153904Y-109246380D02*
X151153904Y-108246380D01*
X151534857Y-108246380D01*
X151630095Y-108294000D01*
X151677714Y-108341619D01*
X151725333Y-108436857D01*
X151725333Y-108579714D01*
X151677714Y-108674952D01*
X151630095Y-108722571D01*
X151534857Y-108770190D01*
X151153904Y-108770190D01*
X152582476Y-108579714D02*
X152582476Y-109246380D01*
X152344380Y-108198761D02*
X152106285Y-108913047D01*
X152725333Y-108913047D01*
M02*
