G04 #@! TF.GenerationSoftware,KiCad,Pcbnew,(5.1.5)-3*
G04 #@! TF.CreationDate,2020-01-24T11:16:49+01:00*
G04 #@! TF.ProjectId,Ladestandsanzeige,4c616465-7374-4616-9e64-73616e7a6569,rev?*
G04 #@! TF.SameCoordinates,Original*
G04 #@! TF.FileFunction,Copper,L2,Bot*
G04 #@! TF.FilePolarity,Positive*
%FSLAX46Y46*%
G04 Gerber Fmt 4.6, Leading zero omitted, Abs format (unit mm)*
G04 Created by KiCad (PCBNEW (5.1.5)-3) date 2020-01-24 11:16:49*
%MOMM*%
%LPD*%
G04 APERTURE LIST*
%ADD10C,4.400000*%
%ADD11C,1.600000*%
%ADD12R,1.800000X1.800000*%
%ADD13C,1.800000*%
%ADD14R,1.750000X1.750000*%
%ADD15C,1.750000*%
%ADD16R,1.700000X1.700000*%
%ADD17O,1.700000X1.700000*%
%ADD18R,1.600000X1.600000*%
%ADD19O,1.600000X1.600000*%
%ADD20C,1.400000*%
%ADD21O,1.400000X1.400000*%
%ADD22C,0.800000*%
%ADD23C,0.250000*%
%ADD24C,0.254000*%
G04 APERTURE END LIST*
D10*
X159766000Y-124206000D03*
X122428000Y-124206000D03*
X159766000Y-100330000D03*
X122428000Y-100330000D03*
D11*
X140168000Y-104902000D03*
X137668000Y-104902000D03*
X145288000Y-104902000D03*
X142788000Y-104902000D03*
D12*
X159258000Y-118618000D03*
D13*
X156718000Y-118618000D03*
X156718000Y-112776000D03*
D12*
X159258000Y-112776000D03*
X159258000Y-106934000D03*
D13*
X156718000Y-106934000D03*
D14*
X131318000Y-122682000D03*
D15*
X128818000Y-122682000D03*
X131572000Y-102108000D03*
D14*
X129072000Y-102108000D03*
D16*
X144018000Y-118872000D03*
D17*
X144018000Y-121412000D03*
X141478000Y-118872000D03*
X141478000Y-121412000D03*
X138938000Y-118872000D03*
X138938000Y-121412000D03*
D18*
X137668000Y-107696000D03*
D19*
X145288000Y-115316000D03*
X137668000Y-110236000D03*
X145288000Y-112776000D03*
X137668000Y-112776000D03*
X145288000Y-110236000D03*
X137668000Y-115316000D03*
X145288000Y-107696000D03*
D11*
X135128000Y-110236000D03*
X135128000Y-112736000D03*
D20*
X143764000Y-102616000D03*
D21*
X138684000Y-102616000D03*
D20*
X154432000Y-118618000D03*
D21*
X149352000Y-118618000D03*
X149352000Y-112776000D03*
D20*
X154432000Y-112776000D03*
X154432000Y-106934000D03*
D21*
X149352000Y-106934000D03*
D22*
X128524000Y-109728000D03*
D23*
X143873001Y-109110999D02*
X129141001Y-109110999D01*
X145288000Y-107696000D02*
X143873001Y-109110999D01*
X129141001Y-109110999D02*
X128524000Y-109728000D01*
D24*
G36*
X120617830Y-98340225D02*
G01*
X122428000Y-100150395D01*
X124238170Y-98340225D01*
X124148730Y-98196000D01*
X158045270Y-98196000D01*
X157955830Y-98340225D01*
X159766000Y-100150395D01*
X161576170Y-98340225D01*
X161486730Y-98196000D01*
X161900000Y-98196000D01*
X161900000Y-98609270D01*
X161755775Y-98519830D01*
X159945605Y-100330000D01*
X161755775Y-102140170D01*
X161900000Y-102050730D01*
X161900001Y-122485271D01*
X161755775Y-122395830D01*
X159945605Y-124206000D01*
X161755775Y-126016170D01*
X161900001Y-125926729D01*
X161900001Y-126340000D01*
X161486730Y-126340000D01*
X161576170Y-126195775D01*
X159766000Y-124385605D01*
X157955830Y-126195775D01*
X158045270Y-126340000D01*
X124148730Y-126340000D01*
X124238170Y-126195775D01*
X122428000Y-124385605D01*
X120617830Y-126195775D01*
X120707270Y-126340000D01*
X120294000Y-126340000D01*
X120294000Y-125926730D01*
X120438225Y-126016170D01*
X122248395Y-124206000D01*
X122607605Y-124206000D01*
X124417775Y-126016170D01*
X124805018Y-125776024D01*
X125065641Y-125282123D01*
X125224901Y-124746867D01*
X125273852Y-124221174D01*
X156917322Y-124221174D01*
X156975019Y-124776632D01*
X157139972Y-125310161D01*
X157388982Y-125776024D01*
X157776225Y-126016170D01*
X159586395Y-124206000D01*
X157776225Y-122395830D01*
X157388982Y-122635976D01*
X157128359Y-123129877D01*
X156969099Y-123665133D01*
X156917322Y-124221174D01*
X125273852Y-124221174D01*
X125276678Y-124190826D01*
X125218981Y-123635368D01*
X125054028Y-123101839D01*
X124865722Y-122749543D01*
X127302196Y-122749543D01*
X127344499Y-123043963D01*
X127443428Y-123324474D01*
X127520132Y-123467975D01*
X127771760Y-123548635D01*
X128638395Y-122682000D01*
X127771760Y-121815365D01*
X127520132Y-121896025D01*
X127391733Y-122164329D01*
X127318145Y-122452526D01*
X127302196Y-122749543D01*
X124865722Y-122749543D01*
X124805018Y-122635976D01*
X124417775Y-122395830D01*
X122607605Y-124206000D01*
X122248395Y-124206000D01*
X120438225Y-122395830D01*
X120294000Y-122485270D01*
X120294000Y-122216225D01*
X120617830Y-122216225D01*
X122428000Y-124026395D01*
X124238170Y-122216225D01*
X123998024Y-121828982D01*
X123631854Y-121635760D01*
X127951365Y-121635760D01*
X128818000Y-122502395D01*
X128832143Y-122488253D01*
X129011748Y-122667858D01*
X128997605Y-122682000D01*
X129011748Y-122696143D01*
X128832143Y-122875748D01*
X128818000Y-122861605D01*
X127951365Y-123728240D01*
X128032025Y-123979868D01*
X128300329Y-124108267D01*
X128588526Y-124181855D01*
X128885543Y-124197804D01*
X129179963Y-124155501D01*
X129460474Y-124056572D01*
X129603975Y-123979868D01*
X129684634Y-123728242D01*
X129800659Y-123844267D01*
X129851228Y-123793698D01*
X129853498Y-123801180D01*
X129912463Y-123911494D01*
X129991815Y-124008185D01*
X130088506Y-124087537D01*
X130198820Y-124146502D01*
X130318518Y-124182812D01*
X130443000Y-124195072D01*
X132193000Y-124195072D01*
X132317482Y-124182812D01*
X132437180Y-124146502D01*
X132547494Y-124087537D01*
X132644185Y-124008185D01*
X132723537Y-123911494D01*
X132782502Y-123801180D01*
X132818812Y-123681482D01*
X132831072Y-123557000D01*
X132831072Y-121807000D01*
X132827319Y-121768891D01*
X137496519Y-121768891D01*
X137593843Y-122043252D01*
X137742822Y-122293355D01*
X137937731Y-122509588D01*
X138171080Y-122683641D01*
X138433901Y-122808825D01*
X138581110Y-122853476D01*
X138811000Y-122732155D01*
X138811000Y-121539000D01*
X137617186Y-121539000D01*
X137496519Y-121768891D01*
X132827319Y-121768891D01*
X132818812Y-121682518D01*
X132782502Y-121562820D01*
X132723537Y-121452506D01*
X132644185Y-121355815D01*
X132547494Y-121276463D01*
X132437180Y-121217498D01*
X132317482Y-121181188D01*
X132193000Y-121168928D01*
X130443000Y-121168928D01*
X130318518Y-121181188D01*
X130198820Y-121217498D01*
X130088506Y-121276463D01*
X129991815Y-121355815D01*
X129912463Y-121452506D01*
X129853498Y-121562820D01*
X129851228Y-121570302D01*
X129800659Y-121519733D01*
X129684634Y-121635758D01*
X129603975Y-121384132D01*
X129335671Y-121255733D01*
X129047474Y-121182145D01*
X128750457Y-121166196D01*
X128456037Y-121208499D01*
X128175526Y-121307428D01*
X128032025Y-121384132D01*
X127951365Y-121635760D01*
X123631854Y-121635760D01*
X123504123Y-121568359D01*
X122968867Y-121409099D01*
X122412826Y-121357322D01*
X121857368Y-121415019D01*
X121323839Y-121579972D01*
X120857976Y-121828982D01*
X120617830Y-122216225D01*
X120294000Y-122216225D01*
X120294000Y-118725740D01*
X137453000Y-118725740D01*
X137453000Y-119018260D01*
X137510068Y-119305158D01*
X137622010Y-119575411D01*
X137784525Y-119818632D01*
X137991368Y-120025475D01*
X138167406Y-120143100D01*
X137937731Y-120314412D01*
X137742822Y-120530645D01*
X137593843Y-120780748D01*
X137496519Y-121055109D01*
X137617186Y-121285000D01*
X138811000Y-121285000D01*
X138811000Y-121265000D01*
X139065000Y-121265000D01*
X139065000Y-121285000D01*
X139085000Y-121285000D01*
X139085000Y-121539000D01*
X139065000Y-121539000D01*
X139065000Y-122732155D01*
X139294890Y-122853476D01*
X139442099Y-122808825D01*
X139704920Y-122683641D01*
X139938269Y-122509588D01*
X140133178Y-122293355D01*
X140202805Y-122176466D01*
X140324525Y-122358632D01*
X140531368Y-122565475D01*
X140774589Y-122727990D01*
X141044842Y-122839932D01*
X141331740Y-122897000D01*
X141624260Y-122897000D01*
X141911158Y-122839932D01*
X142181411Y-122727990D01*
X142424632Y-122565475D01*
X142631475Y-122358632D01*
X142748000Y-122184240D01*
X142864525Y-122358632D01*
X143071368Y-122565475D01*
X143314589Y-122727990D01*
X143584842Y-122839932D01*
X143871740Y-122897000D01*
X144164260Y-122897000D01*
X144451158Y-122839932D01*
X144721411Y-122727990D01*
X144964632Y-122565475D01*
X145171475Y-122358632D01*
X145266628Y-122216225D01*
X157955830Y-122216225D01*
X159766000Y-124026395D01*
X161576170Y-122216225D01*
X161336024Y-121828982D01*
X160842123Y-121568359D01*
X160306867Y-121409099D01*
X159750826Y-121357322D01*
X159195368Y-121415019D01*
X158661839Y-121579972D01*
X158195976Y-121828982D01*
X157955830Y-122216225D01*
X145266628Y-122216225D01*
X145333990Y-122115411D01*
X145445932Y-121845158D01*
X145503000Y-121558260D01*
X145503000Y-121265740D01*
X145445932Y-120978842D01*
X145333990Y-120708589D01*
X145171475Y-120465368D01*
X145039620Y-120333513D01*
X145112180Y-120311502D01*
X145222494Y-120252537D01*
X145319185Y-120173185D01*
X145398537Y-120076494D01*
X145457502Y-119966180D01*
X145493812Y-119846482D01*
X145506072Y-119722000D01*
X145506072Y-118486514D01*
X148017000Y-118486514D01*
X148017000Y-118749486D01*
X148068304Y-119007405D01*
X148168939Y-119250359D01*
X148315038Y-119469013D01*
X148500987Y-119654962D01*
X148719641Y-119801061D01*
X148962595Y-119901696D01*
X149220514Y-119953000D01*
X149483486Y-119953000D01*
X149741405Y-119901696D01*
X149984359Y-119801061D01*
X150203013Y-119654962D01*
X150388962Y-119469013D01*
X150535061Y-119250359D01*
X150635696Y-119007405D01*
X150687000Y-118749486D01*
X150687000Y-118486514D01*
X153097000Y-118486514D01*
X153097000Y-118749486D01*
X153148304Y-119007405D01*
X153248939Y-119250359D01*
X153395038Y-119469013D01*
X153580987Y-119654962D01*
X153799641Y-119801061D01*
X154042595Y-119901696D01*
X154300514Y-119953000D01*
X154563486Y-119953000D01*
X154821405Y-119901696D01*
X155064359Y-119801061D01*
X155283013Y-119654962D01*
X155451901Y-119486074D01*
X155525688Y-119596505D01*
X155739495Y-119810312D01*
X155990905Y-119978299D01*
X156270257Y-120094011D01*
X156566816Y-120153000D01*
X156869184Y-120153000D01*
X157165743Y-120094011D01*
X157445095Y-119978299D01*
X157696505Y-119810312D01*
X157762944Y-119743873D01*
X157768498Y-119762180D01*
X157827463Y-119872494D01*
X157906815Y-119969185D01*
X158003506Y-120048537D01*
X158113820Y-120107502D01*
X158233518Y-120143812D01*
X158358000Y-120156072D01*
X158972250Y-120153000D01*
X159131000Y-119994250D01*
X159131000Y-118745000D01*
X159385000Y-118745000D01*
X159385000Y-119994250D01*
X159543750Y-120153000D01*
X160158000Y-120156072D01*
X160282482Y-120143812D01*
X160402180Y-120107502D01*
X160512494Y-120048537D01*
X160609185Y-119969185D01*
X160688537Y-119872494D01*
X160747502Y-119762180D01*
X160783812Y-119642482D01*
X160796072Y-119518000D01*
X160793000Y-118903750D01*
X160634250Y-118745000D01*
X159385000Y-118745000D01*
X159131000Y-118745000D01*
X159111000Y-118745000D01*
X159111000Y-118491000D01*
X159131000Y-118491000D01*
X159131000Y-117241750D01*
X159385000Y-117241750D01*
X159385000Y-118491000D01*
X160634250Y-118491000D01*
X160793000Y-118332250D01*
X160796072Y-117718000D01*
X160783812Y-117593518D01*
X160747502Y-117473820D01*
X160688537Y-117363506D01*
X160609185Y-117266815D01*
X160512494Y-117187463D01*
X160402180Y-117128498D01*
X160282482Y-117092188D01*
X160158000Y-117079928D01*
X159543750Y-117083000D01*
X159385000Y-117241750D01*
X159131000Y-117241750D01*
X158972250Y-117083000D01*
X158358000Y-117079928D01*
X158233518Y-117092188D01*
X158113820Y-117128498D01*
X158003506Y-117187463D01*
X157906815Y-117266815D01*
X157827463Y-117363506D01*
X157768498Y-117473820D01*
X157762944Y-117492127D01*
X157696505Y-117425688D01*
X157445095Y-117257701D01*
X157165743Y-117141989D01*
X156869184Y-117083000D01*
X156566816Y-117083000D01*
X156270257Y-117141989D01*
X155990905Y-117257701D01*
X155739495Y-117425688D01*
X155525688Y-117639495D01*
X155451901Y-117749926D01*
X155283013Y-117581038D01*
X155064359Y-117434939D01*
X154821405Y-117334304D01*
X154563486Y-117283000D01*
X154300514Y-117283000D01*
X154042595Y-117334304D01*
X153799641Y-117434939D01*
X153580987Y-117581038D01*
X153395038Y-117766987D01*
X153248939Y-117985641D01*
X153148304Y-118228595D01*
X153097000Y-118486514D01*
X150687000Y-118486514D01*
X150635696Y-118228595D01*
X150535061Y-117985641D01*
X150388962Y-117766987D01*
X150203013Y-117581038D01*
X149984359Y-117434939D01*
X149741405Y-117334304D01*
X149483486Y-117283000D01*
X149220514Y-117283000D01*
X148962595Y-117334304D01*
X148719641Y-117434939D01*
X148500987Y-117581038D01*
X148315038Y-117766987D01*
X148168939Y-117985641D01*
X148068304Y-118228595D01*
X148017000Y-118486514D01*
X145506072Y-118486514D01*
X145506072Y-118022000D01*
X145493812Y-117897518D01*
X145457502Y-117777820D01*
X145398537Y-117667506D01*
X145319185Y-117570815D01*
X145222494Y-117491463D01*
X145112180Y-117432498D01*
X144992482Y-117396188D01*
X144868000Y-117383928D01*
X143168000Y-117383928D01*
X143043518Y-117396188D01*
X142923820Y-117432498D01*
X142813506Y-117491463D01*
X142716815Y-117570815D01*
X142637463Y-117667506D01*
X142578498Y-117777820D01*
X142556487Y-117850380D01*
X142424632Y-117718525D01*
X142181411Y-117556010D01*
X141911158Y-117444068D01*
X141624260Y-117387000D01*
X141331740Y-117387000D01*
X141044842Y-117444068D01*
X140774589Y-117556010D01*
X140531368Y-117718525D01*
X140324525Y-117925368D01*
X140208000Y-118099760D01*
X140091475Y-117925368D01*
X139884632Y-117718525D01*
X139641411Y-117556010D01*
X139371158Y-117444068D01*
X139084260Y-117387000D01*
X138791740Y-117387000D01*
X138504842Y-117444068D01*
X138234589Y-117556010D01*
X137991368Y-117718525D01*
X137784525Y-117925368D01*
X137622010Y-118168589D01*
X137510068Y-118438842D01*
X137453000Y-118725740D01*
X120294000Y-118725740D01*
X120294000Y-115665039D01*
X136276096Y-115665039D01*
X136316754Y-115799087D01*
X136436963Y-116053420D01*
X136604481Y-116279414D01*
X136812869Y-116468385D01*
X137054119Y-116613070D01*
X137318960Y-116707909D01*
X137541000Y-116586624D01*
X137541000Y-115443000D01*
X137795000Y-115443000D01*
X137795000Y-116586624D01*
X138017040Y-116707909D01*
X138281881Y-116613070D01*
X138523131Y-116468385D01*
X138731519Y-116279414D01*
X138899037Y-116053420D01*
X139019246Y-115799087D01*
X139059904Y-115665039D01*
X138937915Y-115443000D01*
X137795000Y-115443000D01*
X137541000Y-115443000D01*
X136398085Y-115443000D01*
X136276096Y-115665039D01*
X120294000Y-115665039D01*
X120294000Y-113728702D01*
X134314903Y-113728702D01*
X134386486Y-113972671D01*
X134641996Y-114093571D01*
X134916184Y-114162300D01*
X135198512Y-114176217D01*
X135478130Y-114134787D01*
X135744292Y-114039603D01*
X135869514Y-113972671D01*
X135941097Y-113728702D01*
X135128000Y-112915605D01*
X134314903Y-113728702D01*
X120294000Y-113728702D01*
X120294000Y-112806512D01*
X133687783Y-112806512D01*
X133729213Y-113086130D01*
X133824397Y-113352292D01*
X133891329Y-113477514D01*
X134135298Y-113549097D01*
X134948395Y-112736000D01*
X134135298Y-111922903D01*
X133891329Y-111994486D01*
X133770429Y-112249996D01*
X133701700Y-112524184D01*
X133687783Y-112806512D01*
X120294000Y-112806512D01*
X120294000Y-109626061D01*
X127489000Y-109626061D01*
X127489000Y-109829939D01*
X127528774Y-110029898D01*
X127606795Y-110218256D01*
X127720063Y-110387774D01*
X127864226Y-110531937D01*
X128033744Y-110645205D01*
X128222102Y-110723226D01*
X128422061Y-110763000D01*
X128625939Y-110763000D01*
X128825898Y-110723226D01*
X129014256Y-110645205D01*
X129183774Y-110531937D01*
X129327937Y-110387774D01*
X129441205Y-110218256D01*
X129519226Y-110029898D01*
X129550833Y-109870999D01*
X133737491Y-109870999D01*
X133693000Y-110094665D01*
X133693000Y-110377335D01*
X133748147Y-110654574D01*
X133856320Y-110915727D01*
X134013363Y-111150759D01*
X134213241Y-111350637D01*
X134413869Y-111484692D01*
X134386486Y-111499329D01*
X134314903Y-111743298D01*
X135128000Y-112556395D01*
X135941097Y-111743298D01*
X135869514Y-111499329D01*
X135840659Y-111485676D01*
X136042759Y-111350637D01*
X136242637Y-111150759D01*
X136398000Y-110918241D01*
X136553363Y-111150759D01*
X136753241Y-111350637D01*
X136985759Y-111506000D01*
X136753241Y-111661363D01*
X136553363Y-111861241D01*
X136408963Y-112077351D01*
X136364671Y-111994486D01*
X136120702Y-111922903D01*
X135307605Y-112736000D01*
X136120702Y-113549097D01*
X136364671Y-113477514D01*
X136386359Y-113431679D01*
X136396320Y-113455727D01*
X136553363Y-113690759D01*
X136753241Y-113890637D01*
X136988273Y-114047680D01*
X136998865Y-114052067D01*
X136812869Y-114163615D01*
X136604481Y-114352586D01*
X136436963Y-114578580D01*
X136316754Y-114832913D01*
X136276096Y-114966961D01*
X136398085Y-115189000D01*
X137541000Y-115189000D01*
X137541000Y-115169000D01*
X137795000Y-115169000D01*
X137795000Y-115189000D01*
X138937915Y-115189000D01*
X139059904Y-114966961D01*
X139019246Y-114832913D01*
X138899037Y-114578580D01*
X138731519Y-114352586D01*
X138523131Y-114163615D01*
X138337135Y-114052067D01*
X138347727Y-114047680D01*
X138582759Y-113890637D01*
X138782637Y-113690759D01*
X138939680Y-113455727D01*
X139047853Y-113194574D01*
X139103000Y-112917335D01*
X139103000Y-112634665D01*
X139047853Y-112357426D01*
X138939680Y-112096273D01*
X138782637Y-111861241D01*
X138582759Y-111661363D01*
X138350241Y-111506000D01*
X138582759Y-111350637D01*
X138782637Y-111150759D01*
X138939680Y-110915727D01*
X139047853Y-110654574D01*
X139103000Y-110377335D01*
X139103000Y-110094665D01*
X139058509Y-109870999D01*
X143835679Y-109870999D01*
X143873001Y-109874675D01*
X143897234Y-109872288D01*
X143853000Y-110094665D01*
X143853000Y-110377335D01*
X143908147Y-110654574D01*
X144016320Y-110915727D01*
X144173363Y-111150759D01*
X144373241Y-111350637D01*
X144605759Y-111506000D01*
X144373241Y-111661363D01*
X144173363Y-111861241D01*
X144016320Y-112096273D01*
X143908147Y-112357426D01*
X143853000Y-112634665D01*
X143853000Y-112917335D01*
X143908147Y-113194574D01*
X144016320Y-113455727D01*
X144173363Y-113690759D01*
X144373241Y-113890637D01*
X144605759Y-114046000D01*
X144373241Y-114201363D01*
X144173363Y-114401241D01*
X144016320Y-114636273D01*
X143908147Y-114897426D01*
X143853000Y-115174665D01*
X143853000Y-115457335D01*
X143908147Y-115734574D01*
X144016320Y-115995727D01*
X144173363Y-116230759D01*
X144373241Y-116430637D01*
X144608273Y-116587680D01*
X144869426Y-116695853D01*
X145146665Y-116751000D01*
X145429335Y-116751000D01*
X145706574Y-116695853D01*
X145967727Y-116587680D01*
X146202759Y-116430637D01*
X146402637Y-116230759D01*
X146559680Y-115995727D01*
X146667853Y-115734574D01*
X146723000Y-115457335D01*
X146723000Y-115174665D01*
X146667853Y-114897426D01*
X146559680Y-114636273D01*
X146402637Y-114401241D01*
X146202759Y-114201363D01*
X145970241Y-114046000D01*
X146202759Y-113890637D01*
X146402637Y-113690759D01*
X146559680Y-113455727D01*
X146667853Y-113194574D01*
X146723000Y-112917335D01*
X146723000Y-112644514D01*
X148017000Y-112644514D01*
X148017000Y-112907486D01*
X148068304Y-113165405D01*
X148168939Y-113408359D01*
X148315038Y-113627013D01*
X148500987Y-113812962D01*
X148719641Y-113959061D01*
X148962595Y-114059696D01*
X149220514Y-114111000D01*
X149483486Y-114111000D01*
X149741405Y-114059696D01*
X149984359Y-113959061D01*
X150203013Y-113812962D01*
X150388962Y-113627013D01*
X150535061Y-113408359D01*
X150635696Y-113165405D01*
X150687000Y-112907486D01*
X150687000Y-112644514D01*
X153097000Y-112644514D01*
X153097000Y-112907486D01*
X153148304Y-113165405D01*
X153248939Y-113408359D01*
X153395038Y-113627013D01*
X153580987Y-113812962D01*
X153799641Y-113959061D01*
X154042595Y-114059696D01*
X154300514Y-114111000D01*
X154563486Y-114111000D01*
X154821405Y-114059696D01*
X155064359Y-113959061D01*
X155283013Y-113812962D01*
X155451901Y-113644074D01*
X155525688Y-113754505D01*
X155739495Y-113968312D01*
X155990905Y-114136299D01*
X156270257Y-114252011D01*
X156566816Y-114311000D01*
X156869184Y-114311000D01*
X157165743Y-114252011D01*
X157445095Y-114136299D01*
X157696505Y-113968312D01*
X157762944Y-113901873D01*
X157768498Y-113920180D01*
X157827463Y-114030494D01*
X157906815Y-114127185D01*
X158003506Y-114206537D01*
X158113820Y-114265502D01*
X158233518Y-114301812D01*
X158358000Y-114314072D01*
X158972250Y-114311000D01*
X159131000Y-114152250D01*
X159131000Y-112903000D01*
X159385000Y-112903000D01*
X159385000Y-114152250D01*
X159543750Y-114311000D01*
X160158000Y-114314072D01*
X160282482Y-114301812D01*
X160402180Y-114265502D01*
X160512494Y-114206537D01*
X160609185Y-114127185D01*
X160688537Y-114030494D01*
X160747502Y-113920180D01*
X160783812Y-113800482D01*
X160796072Y-113676000D01*
X160793000Y-113061750D01*
X160634250Y-112903000D01*
X159385000Y-112903000D01*
X159131000Y-112903000D01*
X159111000Y-112903000D01*
X159111000Y-112649000D01*
X159131000Y-112649000D01*
X159131000Y-111399750D01*
X159385000Y-111399750D01*
X159385000Y-112649000D01*
X160634250Y-112649000D01*
X160793000Y-112490250D01*
X160796072Y-111876000D01*
X160783812Y-111751518D01*
X160747502Y-111631820D01*
X160688537Y-111521506D01*
X160609185Y-111424815D01*
X160512494Y-111345463D01*
X160402180Y-111286498D01*
X160282482Y-111250188D01*
X160158000Y-111237928D01*
X159543750Y-111241000D01*
X159385000Y-111399750D01*
X159131000Y-111399750D01*
X158972250Y-111241000D01*
X158358000Y-111237928D01*
X158233518Y-111250188D01*
X158113820Y-111286498D01*
X158003506Y-111345463D01*
X157906815Y-111424815D01*
X157827463Y-111521506D01*
X157768498Y-111631820D01*
X157762944Y-111650127D01*
X157696505Y-111583688D01*
X157445095Y-111415701D01*
X157165743Y-111299989D01*
X156869184Y-111241000D01*
X156566816Y-111241000D01*
X156270257Y-111299989D01*
X155990905Y-111415701D01*
X155739495Y-111583688D01*
X155525688Y-111797495D01*
X155451901Y-111907926D01*
X155283013Y-111739038D01*
X155064359Y-111592939D01*
X154821405Y-111492304D01*
X154563486Y-111441000D01*
X154300514Y-111441000D01*
X154042595Y-111492304D01*
X153799641Y-111592939D01*
X153580987Y-111739038D01*
X153395038Y-111924987D01*
X153248939Y-112143641D01*
X153148304Y-112386595D01*
X153097000Y-112644514D01*
X150687000Y-112644514D01*
X150635696Y-112386595D01*
X150535061Y-112143641D01*
X150388962Y-111924987D01*
X150203013Y-111739038D01*
X149984359Y-111592939D01*
X149741405Y-111492304D01*
X149483486Y-111441000D01*
X149220514Y-111441000D01*
X148962595Y-111492304D01*
X148719641Y-111592939D01*
X148500987Y-111739038D01*
X148315038Y-111924987D01*
X148168939Y-112143641D01*
X148068304Y-112386595D01*
X148017000Y-112644514D01*
X146723000Y-112644514D01*
X146723000Y-112634665D01*
X146667853Y-112357426D01*
X146559680Y-112096273D01*
X146402637Y-111861241D01*
X146202759Y-111661363D01*
X145970241Y-111506000D01*
X146202759Y-111350637D01*
X146402637Y-111150759D01*
X146559680Y-110915727D01*
X146667853Y-110654574D01*
X146723000Y-110377335D01*
X146723000Y-110094665D01*
X146667853Y-109817426D01*
X146559680Y-109556273D01*
X146402637Y-109321241D01*
X146202759Y-109121363D01*
X145970241Y-108966000D01*
X146202759Y-108810637D01*
X146402637Y-108610759D01*
X146559680Y-108375727D01*
X146667853Y-108114574D01*
X146723000Y-107837335D01*
X146723000Y-107554665D01*
X146667853Y-107277426D01*
X146559680Y-107016273D01*
X146416852Y-106802514D01*
X148017000Y-106802514D01*
X148017000Y-107065486D01*
X148068304Y-107323405D01*
X148168939Y-107566359D01*
X148315038Y-107785013D01*
X148500987Y-107970962D01*
X148719641Y-108117061D01*
X148962595Y-108217696D01*
X149220514Y-108269000D01*
X149483486Y-108269000D01*
X149741405Y-108217696D01*
X149984359Y-108117061D01*
X150203013Y-107970962D01*
X150388962Y-107785013D01*
X150535061Y-107566359D01*
X150635696Y-107323405D01*
X150687000Y-107065486D01*
X150687000Y-106802514D01*
X153097000Y-106802514D01*
X153097000Y-107065486D01*
X153148304Y-107323405D01*
X153248939Y-107566359D01*
X153395038Y-107785013D01*
X153580987Y-107970962D01*
X153799641Y-108117061D01*
X154042595Y-108217696D01*
X154300514Y-108269000D01*
X154563486Y-108269000D01*
X154821405Y-108217696D01*
X155064359Y-108117061D01*
X155283013Y-107970962D01*
X155451901Y-107802074D01*
X155525688Y-107912505D01*
X155739495Y-108126312D01*
X155990905Y-108294299D01*
X156270257Y-108410011D01*
X156566816Y-108469000D01*
X156869184Y-108469000D01*
X157165743Y-108410011D01*
X157445095Y-108294299D01*
X157696505Y-108126312D01*
X157762944Y-108059873D01*
X157768498Y-108078180D01*
X157827463Y-108188494D01*
X157906815Y-108285185D01*
X158003506Y-108364537D01*
X158113820Y-108423502D01*
X158233518Y-108459812D01*
X158358000Y-108472072D01*
X158972250Y-108469000D01*
X159131000Y-108310250D01*
X159131000Y-107061000D01*
X159385000Y-107061000D01*
X159385000Y-108310250D01*
X159543750Y-108469000D01*
X160158000Y-108472072D01*
X160282482Y-108459812D01*
X160402180Y-108423502D01*
X160512494Y-108364537D01*
X160609185Y-108285185D01*
X160688537Y-108188494D01*
X160747502Y-108078180D01*
X160783812Y-107958482D01*
X160796072Y-107834000D01*
X160793000Y-107219750D01*
X160634250Y-107061000D01*
X159385000Y-107061000D01*
X159131000Y-107061000D01*
X159111000Y-107061000D01*
X159111000Y-106807000D01*
X159131000Y-106807000D01*
X159131000Y-105557750D01*
X159385000Y-105557750D01*
X159385000Y-106807000D01*
X160634250Y-106807000D01*
X160793000Y-106648250D01*
X160796072Y-106034000D01*
X160783812Y-105909518D01*
X160747502Y-105789820D01*
X160688537Y-105679506D01*
X160609185Y-105582815D01*
X160512494Y-105503463D01*
X160402180Y-105444498D01*
X160282482Y-105408188D01*
X160158000Y-105395928D01*
X159543750Y-105399000D01*
X159385000Y-105557750D01*
X159131000Y-105557750D01*
X158972250Y-105399000D01*
X158358000Y-105395928D01*
X158233518Y-105408188D01*
X158113820Y-105444498D01*
X158003506Y-105503463D01*
X157906815Y-105582815D01*
X157827463Y-105679506D01*
X157768498Y-105789820D01*
X157762944Y-105808127D01*
X157696505Y-105741688D01*
X157445095Y-105573701D01*
X157165743Y-105457989D01*
X156869184Y-105399000D01*
X156566816Y-105399000D01*
X156270257Y-105457989D01*
X155990905Y-105573701D01*
X155739495Y-105741688D01*
X155525688Y-105955495D01*
X155451901Y-106065926D01*
X155283013Y-105897038D01*
X155064359Y-105750939D01*
X154821405Y-105650304D01*
X154563486Y-105599000D01*
X154300514Y-105599000D01*
X154042595Y-105650304D01*
X153799641Y-105750939D01*
X153580987Y-105897038D01*
X153395038Y-106082987D01*
X153248939Y-106301641D01*
X153148304Y-106544595D01*
X153097000Y-106802514D01*
X150687000Y-106802514D01*
X150635696Y-106544595D01*
X150535061Y-106301641D01*
X150388962Y-106082987D01*
X150203013Y-105897038D01*
X149984359Y-105750939D01*
X149741405Y-105650304D01*
X149483486Y-105599000D01*
X149220514Y-105599000D01*
X148962595Y-105650304D01*
X148719641Y-105750939D01*
X148500987Y-105897038D01*
X148315038Y-106082987D01*
X148168939Y-106301641D01*
X148068304Y-106544595D01*
X148017000Y-106802514D01*
X146416852Y-106802514D01*
X146402637Y-106781241D01*
X146202759Y-106581363D01*
X145967727Y-106424320D01*
X145706574Y-106316147D01*
X145620371Y-106299000D01*
X145706574Y-106281853D01*
X145967727Y-106173680D01*
X146202759Y-106016637D01*
X146402637Y-105816759D01*
X146559680Y-105581727D01*
X146667853Y-105320574D01*
X146723000Y-105043335D01*
X146723000Y-104760665D01*
X146667853Y-104483426D01*
X146559680Y-104222273D01*
X146402637Y-103987241D01*
X146202759Y-103787363D01*
X145967727Y-103630320D01*
X145706574Y-103522147D01*
X145429335Y-103467000D01*
X145146665Y-103467000D01*
X144869426Y-103522147D01*
X144658431Y-103609544D01*
X144800962Y-103467013D01*
X144947061Y-103248359D01*
X145047696Y-103005405D01*
X145099000Y-102747486D01*
X145099000Y-102484514D01*
X145066231Y-102319775D01*
X157955830Y-102319775D01*
X158195976Y-102707018D01*
X158689877Y-102967641D01*
X159225133Y-103126901D01*
X159781174Y-103178678D01*
X160336632Y-103120981D01*
X160870161Y-102956028D01*
X161336024Y-102707018D01*
X161576170Y-102319775D01*
X159766000Y-100509605D01*
X157955830Y-102319775D01*
X145066231Y-102319775D01*
X145047696Y-102226595D01*
X144947061Y-101983641D01*
X144800962Y-101764987D01*
X144615013Y-101579038D01*
X144396359Y-101432939D01*
X144153405Y-101332304D01*
X143895486Y-101281000D01*
X143632514Y-101281000D01*
X143374595Y-101332304D01*
X143131641Y-101432939D01*
X142912987Y-101579038D01*
X142727038Y-101764987D01*
X142580939Y-101983641D01*
X142480304Y-102226595D01*
X142429000Y-102484514D01*
X142429000Y-102747486D01*
X142480304Y-103005405D01*
X142580939Y-103248359D01*
X142723750Y-103462092D01*
X142717488Y-103461783D01*
X142437870Y-103503213D01*
X142171708Y-103598397D01*
X142046486Y-103665329D01*
X141974903Y-103909298D01*
X142788000Y-104722395D01*
X142802143Y-104708253D01*
X142981748Y-104887858D01*
X142967605Y-104902000D01*
X143780702Y-105715097D01*
X144024671Y-105643514D01*
X144038324Y-105614659D01*
X144173363Y-105816759D01*
X144373241Y-106016637D01*
X144608273Y-106173680D01*
X144869426Y-106281853D01*
X144955629Y-106299000D01*
X144869426Y-106316147D01*
X144608273Y-106424320D01*
X144373241Y-106581363D01*
X144173363Y-106781241D01*
X144016320Y-107016273D01*
X143908147Y-107277426D01*
X143853000Y-107554665D01*
X143853000Y-107837335D01*
X143889312Y-108019886D01*
X143558200Y-108350999D01*
X139106072Y-108350999D01*
X139106072Y-106896000D01*
X139093812Y-106771518D01*
X139057502Y-106651820D01*
X138998537Y-106541506D01*
X138919185Y-106444815D01*
X138822494Y-106365463D01*
X138712180Y-106306498D01*
X138592482Y-106270188D01*
X138468000Y-106257928D01*
X138144334Y-106257928D01*
X138347727Y-106173680D01*
X138582759Y-106016637D01*
X138704694Y-105894702D01*
X139354903Y-105894702D01*
X139426486Y-106138671D01*
X139681996Y-106259571D01*
X139956184Y-106328300D01*
X140238512Y-106342217D01*
X140518130Y-106300787D01*
X140784292Y-106205603D01*
X140909514Y-106138671D01*
X140981097Y-105894702D01*
X141974903Y-105894702D01*
X142046486Y-106138671D01*
X142301996Y-106259571D01*
X142576184Y-106328300D01*
X142858512Y-106342217D01*
X143138130Y-106300787D01*
X143404292Y-106205603D01*
X143529514Y-106138671D01*
X143601097Y-105894702D01*
X142788000Y-105081605D01*
X141974903Y-105894702D01*
X140981097Y-105894702D01*
X140168000Y-105081605D01*
X139354903Y-105894702D01*
X138704694Y-105894702D01*
X138782637Y-105816759D01*
X138916692Y-105616131D01*
X138931329Y-105643514D01*
X139175298Y-105715097D01*
X139988395Y-104902000D01*
X140347605Y-104902000D01*
X141160702Y-105715097D01*
X141404671Y-105643514D01*
X141475584Y-105493647D01*
X141484397Y-105518292D01*
X141551329Y-105643514D01*
X141795298Y-105715097D01*
X142608395Y-104902000D01*
X141795298Y-104088903D01*
X141551329Y-104160486D01*
X141480416Y-104310353D01*
X141471603Y-104285708D01*
X141404671Y-104160486D01*
X141160702Y-104088903D01*
X140347605Y-104902000D01*
X139988395Y-104902000D01*
X139175298Y-104088903D01*
X138931329Y-104160486D01*
X138917676Y-104189341D01*
X138782637Y-103987241D01*
X138746396Y-103951000D01*
X138815486Y-103951000D01*
X139073405Y-103899696D01*
X139316359Y-103799061D01*
X139404534Y-103740144D01*
X139354903Y-103909298D01*
X140168000Y-104722395D01*
X140981097Y-103909298D01*
X140909514Y-103665329D01*
X140654004Y-103544429D01*
X140379816Y-103475700D01*
X140097488Y-103461783D01*
X139817870Y-103503213D01*
X139610660Y-103577315D01*
X139720962Y-103467013D01*
X139867061Y-103248359D01*
X139967696Y-103005405D01*
X140019000Y-102747486D01*
X140019000Y-102484514D01*
X139967696Y-102226595D01*
X139867061Y-101983641D01*
X139720962Y-101764987D01*
X139535013Y-101579038D01*
X139316359Y-101432939D01*
X139073405Y-101332304D01*
X138815486Y-101281000D01*
X138552514Y-101281000D01*
X138294595Y-101332304D01*
X138051641Y-101432939D01*
X137832987Y-101579038D01*
X137647038Y-101764987D01*
X137500939Y-101983641D01*
X137400304Y-102226595D01*
X137349000Y-102484514D01*
X137349000Y-102747486D01*
X137400304Y-103005405D01*
X137500939Y-103248359D01*
X137647029Y-103467000D01*
X137526665Y-103467000D01*
X137249426Y-103522147D01*
X136988273Y-103630320D01*
X136753241Y-103787363D01*
X136553363Y-103987241D01*
X136396320Y-104222273D01*
X136288147Y-104483426D01*
X136233000Y-104760665D01*
X136233000Y-105043335D01*
X136288147Y-105320574D01*
X136396320Y-105581727D01*
X136553363Y-105816759D01*
X136753241Y-106016637D01*
X136988273Y-106173680D01*
X137191666Y-106257928D01*
X136868000Y-106257928D01*
X136743518Y-106270188D01*
X136623820Y-106306498D01*
X136513506Y-106365463D01*
X136416815Y-106444815D01*
X136337463Y-106541506D01*
X136278498Y-106651820D01*
X136242188Y-106771518D01*
X136229928Y-106896000D01*
X136229928Y-108350999D01*
X129178323Y-108350999D01*
X129141000Y-108347323D01*
X129103677Y-108350999D01*
X129103668Y-108350999D01*
X128992015Y-108361996D01*
X128848754Y-108405453D01*
X128716725Y-108476025D01*
X128601000Y-108570998D01*
X128577201Y-108599997D01*
X128484198Y-108693000D01*
X128422061Y-108693000D01*
X128222102Y-108732774D01*
X128033744Y-108810795D01*
X127864226Y-108924063D01*
X127720063Y-109068226D01*
X127606795Y-109237744D01*
X127528774Y-109426102D01*
X127489000Y-109626061D01*
X120294000Y-109626061D01*
X120294000Y-102319775D01*
X120617830Y-102319775D01*
X120857976Y-102707018D01*
X121351877Y-102967641D01*
X121887133Y-103126901D01*
X122443174Y-103178678D01*
X122998632Y-103120981D01*
X123532161Y-102956028D01*
X123998024Y-102707018D01*
X124238170Y-102319775D01*
X122428000Y-100509605D01*
X120617830Y-102319775D01*
X120294000Y-102319775D01*
X120294000Y-102050730D01*
X120438225Y-102140170D01*
X122248395Y-100330000D01*
X122607605Y-100330000D01*
X124417775Y-102140170D01*
X124805018Y-101900024D01*
X125065641Y-101406123D01*
X125117151Y-101233000D01*
X127558928Y-101233000D01*
X127558928Y-102983000D01*
X127571188Y-103107482D01*
X127607498Y-103227180D01*
X127666463Y-103337494D01*
X127745815Y-103434185D01*
X127842506Y-103513537D01*
X127952820Y-103572502D01*
X128072518Y-103608812D01*
X128197000Y-103621072D01*
X129947000Y-103621072D01*
X130071482Y-103608812D01*
X130191180Y-103572502D01*
X130301494Y-103513537D01*
X130398185Y-103434185D01*
X130477537Y-103337494D01*
X130536502Y-103227180D01*
X130538772Y-103219698D01*
X130589341Y-103270267D01*
X130705366Y-103154242D01*
X130786025Y-103405868D01*
X131054329Y-103534267D01*
X131342526Y-103607855D01*
X131639543Y-103623804D01*
X131933963Y-103581501D01*
X132214474Y-103482572D01*
X132357975Y-103405868D01*
X132438635Y-103154240D01*
X131572000Y-102287605D01*
X131557858Y-102301748D01*
X131378253Y-102122143D01*
X131392395Y-102108000D01*
X131751605Y-102108000D01*
X132618240Y-102974635D01*
X132869868Y-102893975D01*
X132998267Y-102625671D01*
X133071855Y-102337474D01*
X133087804Y-102040457D01*
X133045501Y-101746037D01*
X132946572Y-101465526D01*
X132869868Y-101322025D01*
X132618240Y-101241365D01*
X131751605Y-102108000D01*
X131392395Y-102108000D01*
X131378253Y-102093858D01*
X131557858Y-101914253D01*
X131572000Y-101928395D01*
X132438635Y-101061760D01*
X132357975Y-100810132D01*
X132089671Y-100681733D01*
X131801474Y-100608145D01*
X131504457Y-100592196D01*
X131210037Y-100634499D01*
X130929526Y-100733428D01*
X130786025Y-100810132D01*
X130705366Y-101061758D01*
X130589341Y-100945733D01*
X130538772Y-100996302D01*
X130536502Y-100988820D01*
X130477537Y-100878506D01*
X130398185Y-100781815D01*
X130301494Y-100702463D01*
X130191180Y-100643498D01*
X130071482Y-100607188D01*
X129947000Y-100594928D01*
X128197000Y-100594928D01*
X128072518Y-100607188D01*
X127952820Y-100643498D01*
X127842506Y-100702463D01*
X127745815Y-100781815D01*
X127666463Y-100878506D01*
X127607498Y-100988820D01*
X127571188Y-101108518D01*
X127558928Y-101233000D01*
X125117151Y-101233000D01*
X125224901Y-100870867D01*
X125273852Y-100345174D01*
X156917322Y-100345174D01*
X156975019Y-100900632D01*
X157139972Y-101434161D01*
X157388982Y-101900024D01*
X157776225Y-102140170D01*
X159586395Y-100330000D01*
X157776225Y-98519830D01*
X157388982Y-98759976D01*
X157128359Y-99253877D01*
X156969099Y-99789133D01*
X156917322Y-100345174D01*
X125273852Y-100345174D01*
X125276678Y-100314826D01*
X125218981Y-99759368D01*
X125054028Y-99225839D01*
X124805018Y-98759976D01*
X124417775Y-98519830D01*
X122607605Y-100330000D01*
X122248395Y-100330000D01*
X120438225Y-98519830D01*
X120294000Y-98609270D01*
X120294000Y-98196000D01*
X120707270Y-98196000D01*
X120617830Y-98340225D01*
G37*
X120617830Y-98340225D02*
X122428000Y-100150395D01*
X124238170Y-98340225D01*
X124148730Y-98196000D01*
X158045270Y-98196000D01*
X157955830Y-98340225D01*
X159766000Y-100150395D01*
X161576170Y-98340225D01*
X161486730Y-98196000D01*
X161900000Y-98196000D01*
X161900000Y-98609270D01*
X161755775Y-98519830D01*
X159945605Y-100330000D01*
X161755775Y-102140170D01*
X161900000Y-102050730D01*
X161900001Y-122485271D01*
X161755775Y-122395830D01*
X159945605Y-124206000D01*
X161755775Y-126016170D01*
X161900001Y-125926729D01*
X161900001Y-126340000D01*
X161486730Y-126340000D01*
X161576170Y-126195775D01*
X159766000Y-124385605D01*
X157955830Y-126195775D01*
X158045270Y-126340000D01*
X124148730Y-126340000D01*
X124238170Y-126195775D01*
X122428000Y-124385605D01*
X120617830Y-126195775D01*
X120707270Y-126340000D01*
X120294000Y-126340000D01*
X120294000Y-125926730D01*
X120438225Y-126016170D01*
X122248395Y-124206000D01*
X122607605Y-124206000D01*
X124417775Y-126016170D01*
X124805018Y-125776024D01*
X125065641Y-125282123D01*
X125224901Y-124746867D01*
X125273852Y-124221174D01*
X156917322Y-124221174D01*
X156975019Y-124776632D01*
X157139972Y-125310161D01*
X157388982Y-125776024D01*
X157776225Y-126016170D01*
X159586395Y-124206000D01*
X157776225Y-122395830D01*
X157388982Y-122635976D01*
X157128359Y-123129877D01*
X156969099Y-123665133D01*
X156917322Y-124221174D01*
X125273852Y-124221174D01*
X125276678Y-124190826D01*
X125218981Y-123635368D01*
X125054028Y-123101839D01*
X124865722Y-122749543D01*
X127302196Y-122749543D01*
X127344499Y-123043963D01*
X127443428Y-123324474D01*
X127520132Y-123467975D01*
X127771760Y-123548635D01*
X128638395Y-122682000D01*
X127771760Y-121815365D01*
X127520132Y-121896025D01*
X127391733Y-122164329D01*
X127318145Y-122452526D01*
X127302196Y-122749543D01*
X124865722Y-122749543D01*
X124805018Y-122635976D01*
X124417775Y-122395830D01*
X122607605Y-124206000D01*
X122248395Y-124206000D01*
X120438225Y-122395830D01*
X120294000Y-122485270D01*
X120294000Y-122216225D01*
X120617830Y-122216225D01*
X122428000Y-124026395D01*
X124238170Y-122216225D01*
X123998024Y-121828982D01*
X123631854Y-121635760D01*
X127951365Y-121635760D01*
X128818000Y-122502395D01*
X128832143Y-122488253D01*
X129011748Y-122667858D01*
X128997605Y-122682000D01*
X129011748Y-122696143D01*
X128832143Y-122875748D01*
X128818000Y-122861605D01*
X127951365Y-123728240D01*
X128032025Y-123979868D01*
X128300329Y-124108267D01*
X128588526Y-124181855D01*
X128885543Y-124197804D01*
X129179963Y-124155501D01*
X129460474Y-124056572D01*
X129603975Y-123979868D01*
X129684634Y-123728242D01*
X129800659Y-123844267D01*
X129851228Y-123793698D01*
X129853498Y-123801180D01*
X129912463Y-123911494D01*
X129991815Y-124008185D01*
X130088506Y-124087537D01*
X130198820Y-124146502D01*
X130318518Y-124182812D01*
X130443000Y-124195072D01*
X132193000Y-124195072D01*
X132317482Y-124182812D01*
X132437180Y-124146502D01*
X132547494Y-124087537D01*
X132644185Y-124008185D01*
X132723537Y-123911494D01*
X132782502Y-123801180D01*
X132818812Y-123681482D01*
X132831072Y-123557000D01*
X132831072Y-121807000D01*
X132827319Y-121768891D01*
X137496519Y-121768891D01*
X137593843Y-122043252D01*
X137742822Y-122293355D01*
X137937731Y-122509588D01*
X138171080Y-122683641D01*
X138433901Y-122808825D01*
X138581110Y-122853476D01*
X138811000Y-122732155D01*
X138811000Y-121539000D01*
X137617186Y-121539000D01*
X137496519Y-121768891D01*
X132827319Y-121768891D01*
X132818812Y-121682518D01*
X132782502Y-121562820D01*
X132723537Y-121452506D01*
X132644185Y-121355815D01*
X132547494Y-121276463D01*
X132437180Y-121217498D01*
X132317482Y-121181188D01*
X132193000Y-121168928D01*
X130443000Y-121168928D01*
X130318518Y-121181188D01*
X130198820Y-121217498D01*
X130088506Y-121276463D01*
X129991815Y-121355815D01*
X129912463Y-121452506D01*
X129853498Y-121562820D01*
X129851228Y-121570302D01*
X129800659Y-121519733D01*
X129684634Y-121635758D01*
X129603975Y-121384132D01*
X129335671Y-121255733D01*
X129047474Y-121182145D01*
X128750457Y-121166196D01*
X128456037Y-121208499D01*
X128175526Y-121307428D01*
X128032025Y-121384132D01*
X127951365Y-121635760D01*
X123631854Y-121635760D01*
X123504123Y-121568359D01*
X122968867Y-121409099D01*
X122412826Y-121357322D01*
X121857368Y-121415019D01*
X121323839Y-121579972D01*
X120857976Y-121828982D01*
X120617830Y-122216225D01*
X120294000Y-122216225D01*
X120294000Y-118725740D01*
X137453000Y-118725740D01*
X137453000Y-119018260D01*
X137510068Y-119305158D01*
X137622010Y-119575411D01*
X137784525Y-119818632D01*
X137991368Y-120025475D01*
X138167406Y-120143100D01*
X137937731Y-120314412D01*
X137742822Y-120530645D01*
X137593843Y-120780748D01*
X137496519Y-121055109D01*
X137617186Y-121285000D01*
X138811000Y-121285000D01*
X138811000Y-121265000D01*
X139065000Y-121265000D01*
X139065000Y-121285000D01*
X139085000Y-121285000D01*
X139085000Y-121539000D01*
X139065000Y-121539000D01*
X139065000Y-122732155D01*
X139294890Y-122853476D01*
X139442099Y-122808825D01*
X139704920Y-122683641D01*
X139938269Y-122509588D01*
X140133178Y-122293355D01*
X140202805Y-122176466D01*
X140324525Y-122358632D01*
X140531368Y-122565475D01*
X140774589Y-122727990D01*
X141044842Y-122839932D01*
X141331740Y-122897000D01*
X141624260Y-122897000D01*
X141911158Y-122839932D01*
X142181411Y-122727990D01*
X142424632Y-122565475D01*
X142631475Y-122358632D01*
X142748000Y-122184240D01*
X142864525Y-122358632D01*
X143071368Y-122565475D01*
X143314589Y-122727990D01*
X143584842Y-122839932D01*
X143871740Y-122897000D01*
X144164260Y-122897000D01*
X144451158Y-122839932D01*
X144721411Y-122727990D01*
X144964632Y-122565475D01*
X145171475Y-122358632D01*
X145266628Y-122216225D01*
X157955830Y-122216225D01*
X159766000Y-124026395D01*
X161576170Y-122216225D01*
X161336024Y-121828982D01*
X160842123Y-121568359D01*
X160306867Y-121409099D01*
X159750826Y-121357322D01*
X159195368Y-121415019D01*
X158661839Y-121579972D01*
X158195976Y-121828982D01*
X157955830Y-122216225D01*
X145266628Y-122216225D01*
X145333990Y-122115411D01*
X145445932Y-121845158D01*
X145503000Y-121558260D01*
X145503000Y-121265740D01*
X145445932Y-120978842D01*
X145333990Y-120708589D01*
X145171475Y-120465368D01*
X145039620Y-120333513D01*
X145112180Y-120311502D01*
X145222494Y-120252537D01*
X145319185Y-120173185D01*
X145398537Y-120076494D01*
X145457502Y-119966180D01*
X145493812Y-119846482D01*
X145506072Y-119722000D01*
X145506072Y-118486514D01*
X148017000Y-118486514D01*
X148017000Y-118749486D01*
X148068304Y-119007405D01*
X148168939Y-119250359D01*
X148315038Y-119469013D01*
X148500987Y-119654962D01*
X148719641Y-119801061D01*
X148962595Y-119901696D01*
X149220514Y-119953000D01*
X149483486Y-119953000D01*
X149741405Y-119901696D01*
X149984359Y-119801061D01*
X150203013Y-119654962D01*
X150388962Y-119469013D01*
X150535061Y-119250359D01*
X150635696Y-119007405D01*
X150687000Y-118749486D01*
X150687000Y-118486514D01*
X153097000Y-118486514D01*
X153097000Y-118749486D01*
X153148304Y-119007405D01*
X153248939Y-119250359D01*
X153395038Y-119469013D01*
X153580987Y-119654962D01*
X153799641Y-119801061D01*
X154042595Y-119901696D01*
X154300514Y-119953000D01*
X154563486Y-119953000D01*
X154821405Y-119901696D01*
X155064359Y-119801061D01*
X155283013Y-119654962D01*
X155451901Y-119486074D01*
X155525688Y-119596505D01*
X155739495Y-119810312D01*
X155990905Y-119978299D01*
X156270257Y-120094011D01*
X156566816Y-120153000D01*
X156869184Y-120153000D01*
X157165743Y-120094011D01*
X157445095Y-119978299D01*
X157696505Y-119810312D01*
X157762944Y-119743873D01*
X157768498Y-119762180D01*
X157827463Y-119872494D01*
X157906815Y-119969185D01*
X158003506Y-120048537D01*
X158113820Y-120107502D01*
X158233518Y-120143812D01*
X158358000Y-120156072D01*
X158972250Y-120153000D01*
X159131000Y-119994250D01*
X159131000Y-118745000D01*
X159385000Y-118745000D01*
X159385000Y-119994250D01*
X159543750Y-120153000D01*
X160158000Y-120156072D01*
X160282482Y-120143812D01*
X160402180Y-120107502D01*
X160512494Y-120048537D01*
X160609185Y-119969185D01*
X160688537Y-119872494D01*
X160747502Y-119762180D01*
X160783812Y-119642482D01*
X160796072Y-119518000D01*
X160793000Y-118903750D01*
X160634250Y-118745000D01*
X159385000Y-118745000D01*
X159131000Y-118745000D01*
X159111000Y-118745000D01*
X159111000Y-118491000D01*
X159131000Y-118491000D01*
X159131000Y-117241750D01*
X159385000Y-117241750D01*
X159385000Y-118491000D01*
X160634250Y-118491000D01*
X160793000Y-118332250D01*
X160796072Y-117718000D01*
X160783812Y-117593518D01*
X160747502Y-117473820D01*
X160688537Y-117363506D01*
X160609185Y-117266815D01*
X160512494Y-117187463D01*
X160402180Y-117128498D01*
X160282482Y-117092188D01*
X160158000Y-117079928D01*
X159543750Y-117083000D01*
X159385000Y-117241750D01*
X159131000Y-117241750D01*
X158972250Y-117083000D01*
X158358000Y-117079928D01*
X158233518Y-117092188D01*
X158113820Y-117128498D01*
X158003506Y-117187463D01*
X157906815Y-117266815D01*
X157827463Y-117363506D01*
X157768498Y-117473820D01*
X157762944Y-117492127D01*
X157696505Y-117425688D01*
X157445095Y-117257701D01*
X157165743Y-117141989D01*
X156869184Y-117083000D01*
X156566816Y-117083000D01*
X156270257Y-117141989D01*
X155990905Y-117257701D01*
X155739495Y-117425688D01*
X155525688Y-117639495D01*
X155451901Y-117749926D01*
X155283013Y-117581038D01*
X155064359Y-117434939D01*
X154821405Y-117334304D01*
X154563486Y-117283000D01*
X154300514Y-117283000D01*
X154042595Y-117334304D01*
X153799641Y-117434939D01*
X153580987Y-117581038D01*
X153395038Y-117766987D01*
X153248939Y-117985641D01*
X153148304Y-118228595D01*
X153097000Y-118486514D01*
X150687000Y-118486514D01*
X150635696Y-118228595D01*
X150535061Y-117985641D01*
X150388962Y-117766987D01*
X150203013Y-117581038D01*
X149984359Y-117434939D01*
X149741405Y-117334304D01*
X149483486Y-117283000D01*
X149220514Y-117283000D01*
X148962595Y-117334304D01*
X148719641Y-117434939D01*
X148500987Y-117581038D01*
X148315038Y-117766987D01*
X148168939Y-117985641D01*
X148068304Y-118228595D01*
X148017000Y-118486514D01*
X145506072Y-118486514D01*
X145506072Y-118022000D01*
X145493812Y-117897518D01*
X145457502Y-117777820D01*
X145398537Y-117667506D01*
X145319185Y-117570815D01*
X145222494Y-117491463D01*
X145112180Y-117432498D01*
X144992482Y-117396188D01*
X144868000Y-117383928D01*
X143168000Y-117383928D01*
X143043518Y-117396188D01*
X142923820Y-117432498D01*
X142813506Y-117491463D01*
X142716815Y-117570815D01*
X142637463Y-117667506D01*
X142578498Y-117777820D01*
X142556487Y-117850380D01*
X142424632Y-117718525D01*
X142181411Y-117556010D01*
X141911158Y-117444068D01*
X141624260Y-117387000D01*
X141331740Y-117387000D01*
X141044842Y-117444068D01*
X140774589Y-117556010D01*
X140531368Y-117718525D01*
X140324525Y-117925368D01*
X140208000Y-118099760D01*
X140091475Y-117925368D01*
X139884632Y-117718525D01*
X139641411Y-117556010D01*
X139371158Y-117444068D01*
X139084260Y-117387000D01*
X138791740Y-117387000D01*
X138504842Y-117444068D01*
X138234589Y-117556010D01*
X137991368Y-117718525D01*
X137784525Y-117925368D01*
X137622010Y-118168589D01*
X137510068Y-118438842D01*
X137453000Y-118725740D01*
X120294000Y-118725740D01*
X120294000Y-115665039D01*
X136276096Y-115665039D01*
X136316754Y-115799087D01*
X136436963Y-116053420D01*
X136604481Y-116279414D01*
X136812869Y-116468385D01*
X137054119Y-116613070D01*
X137318960Y-116707909D01*
X137541000Y-116586624D01*
X137541000Y-115443000D01*
X137795000Y-115443000D01*
X137795000Y-116586624D01*
X138017040Y-116707909D01*
X138281881Y-116613070D01*
X138523131Y-116468385D01*
X138731519Y-116279414D01*
X138899037Y-116053420D01*
X139019246Y-115799087D01*
X139059904Y-115665039D01*
X138937915Y-115443000D01*
X137795000Y-115443000D01*
X137541000Y-115443000D01*
X136398085Y-115443000D01*
X136276096Y-115665039D01*
X120294000Y-115665039D01*
X120294000Y-113728702D01*
X134314903Y-113728702D01*
X134386486Y-113972671D01*
X134641996Y-114093571D01*
X134916184Y-114162300D01*
X135198512Y-114176217D01*
X135478130Y-114134787D01*
X135744292Y-114039603D01*
X135869514Y-113972671D01*
X135941097Y-113728702D01*
X135128000Y-112915605D01*
X134314903Y-113728702D01*
X120294000Y-113728702D01*
X120294000Y-112806512D01*
X133687783Y-112806512D01*
X133729213Y-113086130D01*
X133824397Y-113352292D01*
X133891329Y-113477514D01*
X134135298Y-113549097D01*
X134948395Y-112736000D01*
X134135298Y-111922903D01*
X133891329Y-111994486D01*
X133770429Y-112249996D01*
X133701700Y-112524184D01*
X133687783Y-112806512D01*
X120294000Y-112806512D01*
X120294000Y-109626061D01*
X127489000Y-109626061D01*
X127489000Y-109829939D01*
X127528774Y-110029898D01*
X127606795Y-110218256D01*
X127720063Y-110387774D01*
X127864226Y-110531937D01*
X128033744Y-110645205D01*
X128222102Y-110723226D01*
X128422061Y-110763000D01*
X128625939Y-110763000D01*
X128825898Y-110723226D01*
X129014256Y-110645205D01*
X129183774Y-110531937D01*
X129327937Y-110387774D01*
X129441205Y-110218256D01*
X129519226Y-110029898D01*
X129550833Y-109870999D01*
X133737491Y-109870999D01*
X133693000Y-110094665D01*
X133693000Y-110377335D01*
X133748147Y-110654574D01*
X133856320Y-110915727D01*
X134013363Y-111150759D01*
X134213241Y-111350637D01*
X134413869Y-111484692D01*
X134386486Y-111499329D01*
X134314903Y-111743298D01*
X135128000Y-112556395D01*
X135941097Y-111743298D01*
X135869514Y-111499329D01*
X135840659Y-111485676D01*
X136042759Y-111350637D01*
X136242637Y-111150759D01*
X136398000Y-110918241D01*
X136553363Y-111150759D01*
X136753241Y-111350637D01*
X136985759Y-111506000D01*
X136753241Y-111661363D01*
X136553363Y-111861241D01*
X136408963Y-112077351D01*
X136364671Y-111994486D01*
X136120702Y-111922903D01*
X135307605Y-112736000D01*
X136120702Y-113549097D01*
X136364671Y-113477514D01*
X136386359Y-113431679D01*
X136396320Y-113455727D01*
X136553363Y-113690759D01*
X136753241Y-113890637D01*
X136988273Y-114047680D01*
X136998865Y-114052067D01*
X136812869Y-114163615D01*
X136604481Y-114352586D01*
X136436963Y-114578580D01*
X136316754Y-114832913D01*
X136276096Y-114966961D01*
X136398085Y-115189000D01*
X137541000Y-115189000D01*
X137541000Y-115169000D01*
X137795000Y-115169000D01*
X137795000Y-115189000D01*
X138937915Y-115189000D01*
X139059904Y-114966961D01*
X139019246Y-114832913D01*
X138899037Y-114578580D01*
X138731519Y-114352586D01*
X138523131Y-114163615D01*
X138337135Y-114052067D01*
X138347727Y-114047680D01*
X138582759Y-113890637D01*
X138782637Y-113690759D01*
X138939680Y-113455727D01*
X139047853Y-113194574D01*
X139103000Y-112917335D01*
X139103000Y-112634665D01*
X139047853Y-112357426D01*
X138939680Y-112096273D01*
X138782637Y-111861241D01*
X138582759Y-111661363D01*
X138350241Y-111506000D01*
X138582759Y-111350637D01*
X138782637Y-111150759D01*
X138939680Y-110915727D01*
X139047853Y-110654574D01*
X139103000Y-110377335D01*
X139103000Y-110094665D01*
X139058509Y-109870999D01*
X143835679Y-109870999D01*
X143873001Y-109874675D01*
X143897234Y-109872288D01*
X143853000Y-110094665D01*
X143853000Y-110377335D01*
X143908147Y-110654574D01*
X144016320Y-110915727D01*
X144173363Y-111150759D01*
X144373241Y-111350637D01*
X144605759Y-111506000D01*
X144373241Y-111661363D01*
X144173363Y-111861241D01*
X144016320Y-112096273D01*
X143908147Y-112357426D01*
X143853000Y-112634665D01*
X143853000Y-112917335D01*
X143908147Y-113194574D01*
X144016320Y-113455727D01*
X144173363Y-113690759D01*
X144373241Y-113890637D01*
X144605759Y-114046000D01*
X144373241Y-114201363D01*
X144173363Y-114401241D01*
X144016320Y-114636273D01*
X143908147Y-114897426D01*
X143853000Y-115174665D01*
X143853000Y-115457335D01*
X143908147Y-115734574D01*
X144016320Y-115995727D01*
X144173363Y-116230759D01*
X144373241Y-116430637D01*
X144608273Y-116587680D01*
X144869426Y-116695853D01*
X145146665Y-116751000D01*
X145429335Y-116751000D01*
X145706574Y-116695853D01*
X145967727Y-116587680D01*
X146202759Y-116430637D01*
X146402637Y-116230759D01*
X146559680Y-115995727D01*
X146667853Y-115734574D01*
X146723000Y-115457335D01*
X146723000Y-115174665D01*
X146667853Y-114897426D01*
X146559680Y-114636273D01*
X146402637Y-114401241D01*
X146202759Y-114201363D01*
X145970241Y-114046000D01*
X146202759Y-113890637D01*
X146402637Y-113690759D01*
X146559680Y-113455727D01*
X146667853Y-113194574D01*
X146723000Y-112917335D01*
X146723000Y-112644514D01*
X148017000Y-112644514D01*
X148017000Y-112907486D01*
X148068304Y-113165405D01*
X148168939Y-113408359D01*
X148315038Y-113627013D01*
X148500987Y-113812962D01*
X148719641Y-113959061D01*
X148962595Y-114059696D01*
X149220514Y-114111000D01*
X149483486Y-114111000D01*
X149741405Y-114059696D01*
X149984359Y-113959061D01*
X150203013Y-113812962D01*
X150388962Y-113627013D01*
X150535061Y-113408359D01*
X150635696Y-113165405D01*
X150687000Y-112907486D01*
X150687000Y-112644514D01*
X153097000Y-112644514D01*
X153097000Y-112907486D01*
X153148304Y-113165405D01*
X153248939Y-113408359D01*
X153395038Y-113627013D01*
X153580987Y-113812962D01*
X153799641Y-113959061D01*
X154042595Y-114059696D01*
X154300514Y-114111000D01*
X154563486Y-114111000D01*
X154821405Y-114059696D01*
X155064359Y-113959061D01*
X155283013Y-113812962D01*
X155451901Y-113644074D01*
X155525688Y-113754505D01*
X155739495Y-113968312D01*
X155990905Y-114136299D01*
X156270257Y-114252011D01*
X156566816Y-114311000D01*
X156869184Y-114311000D01*
X157165743Y-114252011D01*
X157445095Y-114136299D01*
X157696505Y-113968312D01*
X157762944Y-113901873D01*
X157768498Y-113920180D01*
X157827463Y-114030494D01*
X157906815Y-114127185D01*
X158003506Y-114206537D01*
X158113820Y-114265502D01*
X158233518Y-114301812D01*
X158358000Y-114314072D01*
X158972250Y-114311000D01*
X159131000Y-114152250D01*
X159131000Y-112903000D01*
X159385000Y-112903000D01*
X159385000Y-114152250D01*
X159543750Y-114311000D01*
X160158000Y-114314072D01*
X160282482Y-114301812D01*
X160402180Y-114265502D01*
X160512494Y-114206537D01*
X160609185Y-114127185D01*
X160688537Y-114030494D01*
X160747502Y-113920180D01*
X160783812Y-113800482D01*
X160796072Y-113676000D01*
X160793000Y-113061750D01*
X160634250Y-112903000D01*
X159385000Y-112903000D01*
X159131000Y-112903000D01*
X159111000Y-112903000D01*
X159111000Y-112649000D01*
X159131000Y-112649000D01*
X159131000Y-111399750D01*
X159385000Y-111399750D01*
X159385000Y-112649000D01*
X160634250Y-112649000D01*
X160793000Y-112490250D01*
X160796072Y-111876000D01*
X160783812Y-111751518D01*
X160747502Y-111631820D01*
X160688537Y-111521506D01*
X160609185Y-111424815D01*
X160512494Y-111345463D01*
X160402180Y-111286498D01*
X160282482Y-111250188D01*
X160158000Y-111237928D01*
X159543750Y-111241000D01*
X159385000Y-111399750D01*
X159131000Y-111399750D01*
X158972250Y-111241000D01*
X158358000Y-111237928D01*
X158233518Y-111250188D01*
X158113820Y-111286498D01*
X158003506Y-111345463D01*
X157906815Y-111424815D01*
X157827463Y-111521506D01*
X157768498Y-111631820D01*
X157762944Y-111650127D01*
X157696505Y-111583688D01*
X157445095Y-111415701D01*
X157165743Y-111299989D01*
X156869184Y-111241000D01*
X156566816Y-111241000D01*
X156270257Y-111299989D01*
X155990905Y-111415701D01*
X155739495Y-111583688D01*
X155525688Y-111797495D01*
X155451901Y-111907926D01*
X155283013Y-111739038D01*
X155064359Y-111592939D01*
X154821405Y-111492304D01*
X154563486Y-111441000D01*
X154300514Y-111441000D01*
X154042595Y-111492304D01*
X153799641Y-111592939D01*
X153580987Y-111739038D01*
X153395038Y-111924987D01*
X153248939Y-112143641D01*
X153148304Y-112386595D01*
X153097000Y-112644514D01*
X150687000Y-112644514D01*
X150635696Y-112386595D01*
X150535061Y-112143641D01*
X150388962Y-111924987D01*
X150203013Y-111739038D01*
X149984359Y-111592939D01*
X149741405Y-111492304D01*
X149483486Y-111441000D01*
X149220514Y-111441000D01*
X148962595Y-111492304D01*
X148719641Y-111592939D01*
X148500987Y-111739038D01*
X148315038Y-111924987D01*
X148168939Y-112143641D01*
X148068304Y-112386595D01*
X148017000Y-112644514D01*
X146723000Y-112644514D01*
X146723000Y-112634665D01*
X146667853Y-112357426D01*
X146559680Y-112096273D01*
X146402637Y-111861241D01*
X146202759Y-111661363D01*
X145970241Y-111506000D01*
X146202759Y-111350637D01*
X146402637Y-111150759D01*
X146559680Y-110915727D01*
X146667853Y-110654574D01*
X146723000Y-110377335D01*
X146723000Y-110094665D01*
X146667853Y-109817426D01*
X146559680Y-109556273D01*
X146402637Y-109321241D01*
X146202759Y-109121363D01*
X145970241Y-108966000D01*
X146202759Y-108810637D01*
X146402637Y-108610759D01*
X146559680Y-108375727D01*
X146667853Y-108114574D01*
X146723000Y-107837335D01*
X146723000Y-107554665D01*
X146667853Y-107277426D01*
X146559680Y-107016273D01*
X146416852Y-106802514D01*
X148017000Y-106802514D01*
X148017000Y-107065486D01*
X148068304Y-107323405D01*
X148168939Y-107566359D01*
X148315038Y-107785013D01*
X148500987Y-107970962D01*
X148719641Y-108117061D01*
X148962595Y-108217696D01*
X149220514Y-108269000D01*
X149483486Y-108269000D01*
X149741405Y-108217696D01*
X149984359Y-108117061D01*
X150203013Y-107970962D01*
X150388962Y-107785013D01*
X150535061Y-107566359D01*
X150635696Y-107323405D01*
X150687000Y-107065486D01*
X150687000Y-106802514D01*
X153097000Y-106802514D01*
X153097000Y-107065486D01*
X153148304Y-107323405D01*
X153248939Y-107566359D01*
X153395038Y-107785013D01*
X153580987Y-107970962D01*
X153799641Y-108117061D01*
X154042595Y-108217696D01*
X154300514Y-108269000D01*
X154563486Y-108269000D01*
X154821405Y-108217696D01*
X155064359Y-108117061D01*
X155283013Y-107970962D01*
X155451901Y-107802074D01*
X155525688Y-107912505D01*
X155739495Y-108126312D01*
X155990905Y-108294299D01*
X156270257Y-108410011D01*
X156566816Y-108469000D01*
X156869184Y-108469000D01*
X157165743Y-108410011D01*
X157445095Y-108294299D01*
X157696505Y-108126312D01*
X157762944Y-108059873D01*
X157768498Y-108078180D01*
X157827463Y-108188494D01*
X157906815Y-108285185D01*
X158003506Y-108364537D01*
X158113820Y-108423502D01*
X158233518Y-108459812D01*
X158358000Y-108472072D01*
X158972250Y-108469000D01*
X159131000Y-108310250D01*
X159131000Y-107061000D01*
X159385000Y-107061000D01*
X159385000Y-108310250D01*
X159543750Y-108469000D01*
X160158000Y-108472072D01*
X160282482Y-108459812D01*
X160402180Y-108423502D01*
X160512494Y-108364537D01*
X160609185Y-108285185D01*
X160688537Y-108188494D01*
X160747502Y-108078180D01*
X160783812Y-107958482D01*
X160796072Y-107834000D01*
X160793000Y-107219750D01*
X160634250Y-107061000D01*
X159385000Y-107061000D01*
X159131000Y-107061000D01*
X159111000Y-107061000D01*
X159111000Y-106807000D01*
X159131000Y-106807000D01*
X159131000Y-105557750D01*
X159385000Y-105557750D01*
X159385000Y-106807000D01*
X160634250Y-106807000D01*
X160793000Y-106648250D01*
X160796072Y-106034000D01*
X160783812Y-105909518D01*
X160747502Y-105789820D01*
X160688537Y-105679506D01*
X160609185Y-105582815D01*
X160512494Y-105503463D01*
X160402180Y-105444498D01*
X160282482Y-105408188D01*
X160158000Y-105395928D01*
X159543750Y-105399000D01*
X159385000Y-105557750D01*
X159131000Y-105557750D01*
X158972250Y-105399000D01*
X158358000Y-105395928D01*
X158233518Y-105408188D01*
X158113820Y-105444498D01*
X158003506Y-105503463D01*
X157906815Y-105582815D01*
X157827463Y-105679506D01*
X157768498Y-105789820D01*
X157762944Y-105808127D01*
X157696505Y-105741688D01*
X157445095Y-105573701D01*
X157165743Y-105457989D01*
X156869184Y-105399000D01*
X156566816Y-105399000D01*
X156270257Y-105457989D01*
X155990905Y-105573701D01*
X155739495Y-105741688D01*
X155525688Y-105955495D01*
X155451901Y-106065926D01*
X155283013Y-105897038D01*
X155064359Y-105750939D01*
X154821405Y-105650304D01*
X154563486Y-105599000D01*
X154300514Y-105599000D01*
X154042595Y-105650304D01*
X153799641Y-105750939D01*
X153580987Y-105897038D01*
X153395038Y-106082987D01*
X153248939Y-106301641D01*
X153148304Y-106544595D01*
X153097000Y-106802514D01*
X150687000Y-106802514D01*
X150635696Y-106544595D01*
X150535061Y-106301641D01*
X150388962Y-106082987D01*
X150203013Y-105897038D01*
X149984359Y-105750939D01*
X149741405Y-105650304D01*
X149483486Y-105599000D01*
X149220514Y-105599000D01*
X148962595Y-105650304D01*
X148719641Y-105750939D01*
X148500987Y-105897038D01*
X148315038Y-106082987D01*
X148168939Y-106301641D01*
X148068304Y-106544595D01*
X148017000Y-106802514D01*
X146416852Y-106802514D01*
X146402637Y-106781241D01*
X146202759Y-106581363D01*
X145967727Y-106424320D01*
X145706574Y-106316147D01*
X145620371Y-106299000D01*
X145706574Y-106281853D01*
X145967727Y-106173680D01*
X146202759Y-106016637D01*
X146402637Y-105816759D01*
X146559680Y-105581727D01*
X146667853Y-105320574D01*
X146723000Y-105043335D01*
X146723000Y-104760665D01*
X146667853Y-104483426D01*
X146559680Y-104222273D01*
X146402637Y-103987241D01*
X146202759Y-103787363D01*
X145967727Y-103630320D01*
X145706574Y-103522147D01*
X145429335Y-103467000D01*
X145146665Y-103467000D01*
X144869426Y-103522147D01*
X144658431Y-103609544D01*
X144800962Y-103467013D01*
X144947061Y-103248359D01*
X145047696Y-103005405D01*
X145099000Y-102747486D01*
X145099000Y-102484514D01*
X145066231Y-102319775D01*
X157955830Y-102319775D01*
X158195976Y-102707018D01*
X158689877Y-102967641D01*
X159225133Y-103126901D01*
X159781174Y-103178678D01*
X160336632Y-103120981D01*
X160870161Y-102956028D01*
X161336024Y-102707018D01*
X161576170Y-102319775D01*
X159766000Y-100509605D01*
X157955830Y-102319775D01*
X145066231Y-102319775D01*
X145047696Y-102226595D01*
X144947061Y-101983641D01*
X144800962Y-101764987D01*
X144615013Y-101579038D01*
X144396359Y-101432939D01*
X144153405Y-101332304D01*
X143895486Y-101281000D01*
X143632514Y-101281000D01*
X143374595Y-101332304D01*
X143131641Y-101432939D01*
X142912987Y-101579038D01*
X142727038Y-101764987D01*
X142580939Y-101983641D01*
X142480304Y-102226595D01*
X142429000Y-102484514D01*
X142429000Y-102747486D01*
X142480304Y-103005405D01*
X142580939Y-103248359D01*
X142723750Y-103462092D01*
X142717488Y-103461783D01*
X142437870Y-103503213D01*
X142171708Y-103598397D01*
X142046486Y-103665329D01*
X141974903Y-103909298D01*
X142788000Y-104722395D01*
X142802143Y-104708253D01*
X142981748Y-104887858D01*
X142967605Y-104902000D01*
X143780702Y-105715097D01*
X144024671Y-105643514D01*
X144038324Y-105614659D01*
X144173363Y-105816759D01*
X144373241Y-106016637D01*
X144608273Y-106173680D01*
X144869426Y-106281853D01*
X144955629Y-106299000D01*
X144869426Y-106316147D01*
X144608273Y-106424320D01*
X144373241Y-106581363D01*
X144173363Y-106781241D01*
X144016320Y-107016273D01*
X143908147Y-107277426D01*
X143853000Y-107554665D01*
X143853000Y-107837335D01*
X143889312Y-108019886D01*
X143558200Y-108350999D01*
X139106072Y-108350999D01*
X139106072Y-106896000D01*
X139093812Y-106771518D01*
X139057502Y-106651820D01*
X138998537Y-106541506D01*
X138919185Y-106444815D01*
X138822494Y-106365463D01*
X138712180Y-106306498D01*
X138592482Y-106270188D01*
X138468000Y-106257928D01*
X138144334Y-106257928D01*
X138347727Y-106173680D01*
X138582759Y-106016637D01*
X138704694Y-105894702D01*
X139354903Y-105894702D01*
X139426486Y-106138671D01*
X139681996Y-106259571D01*
X139956184Y-106328300D01*
X140238512Y-106342217D01*
X140518130Y-106300787D01*
X140784292Y-106205603D01*
X140909514Y-106138671D01*
X140981097Y-105894702D01*
X141974903Y-105894702D01*
X142046486Y-106138671D01*
X142301996Y-106259571D01*
X142576184Y-106328300D01*
X142858512Y-106342217D01*
X143138130Y-106300787D01*
X143404292Y-106205603D01*
X143529514Y-106138671D01*
X143601097Y-105894702D01*
X142788000Y-105081605D01*
X141974903Y-105894702D01*
X140981097Y-105894702D01*
X140168000Y-105081605D01*
X139354903Y-105894702D01*
X138704694Y-105894702D01*
X138782637Y-105816759D01*
X138916692Y-105616131D01*
X138931329Y-105643514D01*
X139175298Y-105715097D01*
X139988395Y-104902000D01*
X140347605Y-104902000D01*
X141160702Y-105715097D01*
X141404671Y-105643514D01*
X141475584Y-105493647D01*
X141484397Y-105518292D01*
X141551329Y-105643514D01*
X141795298Y-105715097D01*
X142608395Y-104902000D01*
X141795298Y-104088903D01*
X141551329Y-104160486D01*
X141480416Y-104310353D01*
X141471603Y-104285708D01*
X141404671Y-104160486D01*
X141160702Y-104088903D01*
X140347605Y-104902000D01*
X139988395Y-104902000D01*
X139175298Y-104088903D01*
X138931329Y-104160486D01*
X138917676Y-104189341D01*
X138782637Y-103987241D01*
X138746396Y-103951000D01*
X138815486Y-103951000D01*
X139073405Y-103899696D01*
X139316359Y-103799061D01*
X139404534Y-103740144D01*
X139354903Y-103909298D01*
X140168000Y-104722395D01*
X140981097Y-103909298D01*
X140909514Y-103665329D01*
X140654004Y-103544429D01*
X140379816Y-103475700D01*
X140097488Y-103461783D01*
X139817870Y-103503213D01*
X139610660Y-103577315D01*
X139720962Y-103467013D01*
X139867061Y-103248359D01*
X139967696Y-103005405D01*
X140019000Y-102747486D01*
X140019000Y-102484514D01*
X139967696Y-102226595D01*
X139867061Y-101983641D01*
X139720962Y-101764987D01*
X139535013Y-101579038D01*
X139316359Y-101432939D01*
X139073405Y-101332304D01*
X138815486Y-101281000D01*
X138552514Y-101281000D01*
X138294595Y-101332304D01*
X138051641Y-101432939D01*
X137832987Y-101579038D01*
X137647038Y-101764987D01*
X137500939Y-101983641D01*
X137400304Y-102226595D01*
X137349000Y-102484514D01*
X137349000Y-102747486D01*
X137400304Y-103005405D01*
X137500939Y-103248359D01*
X137647029Y-103467000D01*
X137526665Y-103467000D01*
X137249426Y-103522147D01*
X136988273Y-103630320D01*
X136753241Y-103787363D01*
X136553363Y-103987241D01*
X136396320Y-104222273D01*
X136288147Y-104483426D01*
X136233000Y-104760665D01*
X136233000Y-105043335D01*
X136288147Y-105320574D01*
X136396320Y-105581727D01*
X136553363Y-105816759D01*
X136753241Y-106016637D01*
X136988273Y-106173680D01*
X137191666Y-106257928D01*
X136868000Y-106257928D01*
X136743518Y-106270188D01*
X136623820Y-106306498D01*
X136513506Y-106365463D01*
X136416815Y-106444815D01*
X136337463Y-106541506D01*
X136278498Y-106651820D01*
X136242188Y-106771518D01*
X136229928Y-106896000D01*
X136229928Y-108350999D01*
X129178323Y-108350999D01*
X129141000Y-108347323D01*
X129103677Y-108350999D01*
X129103668Y-108350999D01*
X128992015Y-108361996D01*
X128848754Y-108405453D01*
X128716725Y-108476025D01*
X128601000Y-108570998D01*
X128577201Y-108599997D01*
X128484198Y-108693000D01*
X128422061Y-108693000D01*
X128222102Y-108732774D01*
X128033744Y-108810795D01*
X127864226Y-108924063D01*
X127720063Y-109068226D01*
X127606795Y-109237744D01*
X127528774Y-109426102D01*
X127489000Y-109626061D01*
X120294000Y-109626061D01*
X120294000Y-102319775D01*
X120617830Y-102319775D01*
X120857976Y-102707018D01*
X121351877Y-102967641D01*
X121887133Y-103126901D01*
X122443174Y-103178678D01*
X122998632Y-103120981D01*
X123532161Y-102956028D01*
X123998024Y-102707018D01*
X124238170Y-102319775D01*
X122428000Y-100509605D01*
X120617830Y-102319775D01*
X120294000Y-102319775D01*
X120294000Y-102050730D01*
X120438225Y-102140170D01*
X122248395Y-100330000D01*
X122607605Y-100330000D01*
X124417775Y-102140170D01*
X124805018Y-101900024D01*
X125065641Y-101406123D01*
X125117151Y-101233000D01*
X127558928Y-101233000D01*
X127558928Y-102983000D01*
X127571188Y-103107482D01*
X127607498Y-103227180D01*
X127666463Y-103337494D01*
X127745815Y-103434185D01*
X127842506Y-103513537D01*
X127952820Y-103572502D01*
X128072518Y-103608812D01*
X128197000Y-103621072D01*
X129947000Y-103621072D01*
X130071482Y-103608812D01*
X130191180Y-103572502D01*
X130301494Y-103513537D01*
X130398185Y-103434185D01*
X130477537Y-103337494D01*
X130536502Y-103227180D01*
X130538772Y-103219698D01*
X130589341Y-103270267D01*
X130705366Y-103154242D01*
X130786025Y-103405868D01*
X131054329Y-103534267D01*
X131342526Y-103607855D01*
X131639543Y-103623804D01*
X131933963Y-103581501D01*
X132214474Y-103482572D01*
X132357975Y-103405868D01*
X132438635Y-103154240D01*
X131572000Y-102287605D01*
X131557858Y-102301748D01*
X131378253Y-102122143D01*
X131392395Y-102108000D01*
X131751605Y-102108000D01*
X132618240Y-102974635D01*
X132869868Y-102893975D01*
X132998267Y-102625671D01*
X133071855Y-102337474D01*
X133087804Y-102040457D01*
X133045501Y-101746037D01*
X132946572Y-101465526D01*
X132869868Y-101322025D01*
X132618240Y-101241365D01*
X131751605Y-102108000D01*
X131392395Y-102108000D01*
X131378253Y-102093858D01*
X131557858Y-101914253D01*
X131572000Y-101928395D01*
X132438635Y-101061760D01*
X132357975Y-100810132D01*
X132089671Y-100681733D01*
X131801474Y-100608145D01*
X131504457Y-100592196D01*
X131210037Y-100634499D01*
X130929526Y-100733428D01*
X130786025Y-100810132D01*
X130705366Y-101061758D01*
X130589341Y-100945733D01*
X130538772Y-100996302D01*
X130536502Y-100988820D01*
X130477537Y-100878506D01*
X130398185Y-100781815D01*
X130301494Y-100702463D01*
X130191180Y-100643498D01*
X130071482Y-100607188D01*
X129947000Y-100594928D01*
X128197000Y-100594928D01*
X128072518Y-100607188D01*
X127952820Y-100643498D01*
X127842506Y-100702463D01*
X127745815Y-100781815D01*
X127666463Y-100878506D01*
X127607498Y-100988820D01*
X127571188Y-101108518D01*
X127558928Y-101233000D01*
X125117151Y-101233000D01*
X125224901Y-100870867D01*
X125273852Y-100345174D01*
X156917322Y-100345174D01*
X156975019Y-100900632D01*
X157139972Y-101434161D01*
X157388982Y-101900024D01*
X157776225Y-102140170D01*
X159586395Y-100330000D01*
X157776225Y-98519830D01*
X157388982Y-98759976D01*
X157128359Y-99253877D01*
X156969099Y-99789133D01*
X156917322Y-100345174D01*
X125273852Y-100345174D01*
X125276678Y-100314826D01*
X125218981Y-99759368D01*
X125054028Y-99225839D01*
X124805018Y-98759976D01*
X124417775Y-98519830D01*
X122607605Y-100330000D01*
X122248395Y-100330000D01*
X120438225Y-98519830D01*
X120294000Y-98609270D01*
X120294000Y-98196000D01*
X120707270Y-98196000D01*
X120617830Y-98340225D01*
M02*
