M48
; DRILL file {KiCad (5.1.5)-3} date 24.01.2020 11:18:15
; FORMAT={-:-/ absolute / inch / decimal}
; #@! TF.CreationDate,2020-01-24T11:18:15+01:00
; #@! TF.GenerationSoftware,Kicad,Pcbnew,(5.1.5)-3
FMAT,2
INCH
T1C0.0157
T2C0.0276
T3C0.0315
T4C0.0354
T5C0.0394
T6C0.0413
T7C0.0866
%
G90
G05
T1
X5.06Y-4.32
T2
X5.88Y-4.67
X6.08Y-4.67
X5.46Y-4.04
X5.66Y-4.04
X5.88Y-4.21
X6.08Y-4.21
X5.88Y-4.44
X6.08Y-4.44
T3
X5.32Y-4.34
X5.32Y-4.4384
X5.42Y-4.24
X5.42Y-4.34
X5.42Y-4.44
X5.42Y-4.54
X5.72Y-4.24
X5.72Y-4.34
X5.72Y-4.44
X5.72Y-4.54
X5.6216Y-4.13
X5.72Y-4.13
X5.42Y-4.13
X5.5184Y-4.13
T4
X6.17Y-4.44
X6.27Y-4.44
X6.17Y-4.21
X6.27Y-4.21
X6.17Y-4.67
X6.27Y-4.67
T5
X5.47Y-4.68
X5.47Y-4.78
X5.57Y-4.68
X5.57Y-4.78
X5.67Y-4.68
X5.67Y-4.78
T6
X5.0716Y-4.83
X5.17Y-4.83
X5.0816Y-4.02
X5.18Y-4.02
T7
X6.29Y-3.95
X6.29Y-4.89
X4.82Y-4.89
X4.82Y-3.95
T0
M30
